<svg xmlns="http://www.w3.org/2000/svg" width="12.801" height="16" viewBox="0 0 12.801 16">
  <path id="icons8-collaborator-male" d="M14.4,4a4,4,0,1,0,4,4A4.009,4.009,0,0,0,14.4,4Zm0,1.2A2.8,2.8,0,1,1,11.6,8,2.791,2.791,0,0,1,14.4,5.2ZM9.591,13.6A1.6,1.6,0,0,0,8,15.191V15.8a3.728,3.728,0,0,0,2.123,3.225A9,9,0,0,0,14.4,20a9,9,0,0,0,4.277-.975A3.728,3.728,0,0,0,20.8,15.8v-.609h0A1.6,1.6,0,0,0,19.209,13.6Zm0,1.2h9.617a.383.383,0,0,1,.392.391V15.8a2.437,2.437,0,0,1-1.5,2.175,7.974,7.974,0,0,1-3.7.825,7.974,7.974,0,0,1-3.7-.825A2.437,2.437,0,0,1,9.2,15.8v-.609A.383.383,0,0,1,9.591,14.8Zm6.209.8a.6.6,0,1,0,0,1.2h1.6a.6.6,0,1,0,0-1.2Z" transform="translate(-8 -4)" fill="gray"/>
</svg>
