<svg xmlns="http://www.w3.org/2000/svg" width="16" height="15.636" viewBox="0 0 16 15.636">
  <path id="icons8-collaborating-in-circle" d="M10,2a1.455,1.455,0,1,0,1.455,1.455A1.455,1.455,0,0,0,10,2ZM8.545,5.636A1.463,1.463,0,0,0,7.091,7.091c0,1.052,1.02,2.182,2.909,2.182s2.909-1.13,2.909-2.182a1.463,1.463,0,0,0-1.455-1.455Zm5.207.371A2.458,2.458,0,0,1,14,7.091a2.565,2.565,0,0,1-.048.5,5.242,5.242,0,0,1,1.106,1.688.1.1,0,0,1,.033,0,2.521,2.521,0,0,1,1.222.313A6.363,6.363,0,0,0,13.753,6.007ZM6.094,6.4A6.363,6.363,0,0,0,4.218,9.055c-.044.116-.084.232-.116.349a2.574,2.574,0,0,1,.808-.131,2.2,2.2,0,0,1,.382.033,5.17,5.17,0,0,1,.832-1.4A2.757,2.757,0,0,1,6,7.091,2.583,2.583,0,0,1,6.094,6.4Zm2.451.331h2.909a.355.355,0,0,1,.364.364c0,.354-.331,1.091-1.818,1.091S8.182,7.444,8.182,7.091A.355.355,0,0,1,8.545,6.727ZM4.909,10.364a1.455,1.455,0,1,0,1.455,1.455A1.455,1.455,0,0,0,4.909,10.364Zm10.182,0a1.455,1.455,0,1,0,1.455,1.455A1.455,1.455,0,0,0,15.091,10.364ZM3.455,14A1.463,1.463,0,0,0,2,15.455c0,1.052,1.02,2.182,2.909,2.182s2.909-1.13,2.909-2.182A1.463,1.463,0,0,0,6.364,14Zm10.182,0a1.463,1.463,0,0,0-1.455,1.455c0,1.052,1.02,2.182,2.909,2.182S18,16.507,18,15.455A1.463,1.463,0,0,0,16.545,14ZM3.455,15.091H6.364a.355.355,0,0,1,.364.364c0,.354-.331,1.091-1.818,1.091s-1.818-.737-1.818-1.091A.355.355,0,0,1,3.455,15.091Zm10.182,0h2.909a.355.355,0,0,1,.364.364c0,.354-.331,1.091-1.818,1.091s-1.818-.737-1.818-1.091A.355.355,0,0,1,13.636,15.091ZM8.763,16.349a3.2,3.2,0,0,1-.538.978,6.315,6.315,0,0,0,3.622.084,3.12,3.12,0,0,1-.578-.982A5.19,5.19,0,0,1,8.763,16.349Z" transform="translate(-2 -2)" fill="gray"/>
</svg>
