<svg xmlns="http://www.w3.org/2000/svg" width="8.381" height="16" viewBox="0 0 8.381 16">
  <path id="icons8-manager" d="M17.191,3a2.667,2.667,0,1,0,2.667,2.667A2.676,2.676,0,0,0,17.191,3Zm0,1.143a1.524,1.524,0,1,1-1.524,1.524A1.515,1.515,0,0,1,17.191,4.143ZM14.423,9.1A1.431,1.431,0,0,0,13,10.518v4.291a4.191,4.191,0,0,0,8.381,0V10.518A1.431,1.431,0,0,0,19.959,9.1Zm0,1.143h1.961l.275.551a.375.375,0,0,0,.084.106l-.688,3.264a.381.381,0,0,0,.075.316l.762.952a.381.381,0,0,0,.6,0l.762-.952a.379.379,0,0,0,.075-.316L17.638,10.9a.375.375,0,0,0,.084-.106L18,10.238h1.961a.271.271,0,0,1,.28.28v4.291a3.048,3.048,0,0,1-6.1,0V10.518A.271.271,0,0,1,14.423,10.238Z" transform="translate(-13 -3)" fill="gray"/>
</svg>
