<svg xmlns="http://www.w3.org/2000/svg" width="385.27" height="154.031" viewBox="0 0 385.27 154.031">
  <g id="feedback_tool" data-name="feedback tool" transform="translate(-81.236 -62.56)">
    <g id="Group_106322" data-name="Group 106322" transform="translate(87.568 108.061)">
      <path id="Path_99481" data-name="Path 99481" d="M104.045,166.23a137.25,137.25,0,0,1-9.952-12.294,7.533,7.533,0,0,1-1.009-4.371,5.892,5.892,0,0,1,5.52-5.144c2.718-.045,4.819,2.2,5.368,4.825.347-2.107,2.538-5,5.066-4.976a5.482,5.482,0,0,1,5.643,4.791,10.354,10.354,0,0,1-1.132,5.088c-2.37,4.987-7.374,9.935-9.509,12.081Z" transform="translate(-92.764 -143.984)" fill="#fff"/>
      <path id="Path_99482" data-name="Path 99482" d="M103.819,166.292h0a.313.313,0,0,1-.207-.084,135.889,135.889,0,0,1-10-12.356,7.82,7.82,0,0,1-1.042-4.539,6.147,6.147,0,0,1,5.8-5.4,5.819,5.819,0,0,1,5.368,4.063c.756-1.984,2.723-4.214,5.032-4.214h.039a5.771,5.771,0,0,1,5.929,5.049,10.532,10.532,0,0,1-1.154,5.245c-2.314,4.869-7.066,9.649-9.352,11.947l-.213.213a.284.284,0,0,1-.2.084Zm-5.357-21.809h-.078a5.627,5.627,0,0,0-5.234,4.886,7.193,7.193,0,0,0,.969,4.2,137.3,137.3,0,0,0,9.7,12.02h.006c2.264-2.281,6.965-7.01,9.24-11.79a10.067,10.067,0,0,0,1.1-4.931,5.2,5.2,0,0,0-5.363-4.533h-.034c-2.382,0-4.427,2.841-4.746,4.735a.294.294,0,0,1-.28.241.289.289,0,0,1-.286-.23c-.476-2.3-2.348-4.595-5-4.595Z" transform="translate(-92.537 -143.76)"/>
    </g>
    <g id="Group_106324" data-name="Group 106324" transform="translate(370.203 163.839)">
      <g id="Group_106323" data-name="Group 106323" transform="translate(0)">
        <path id="Path_99483" data-name="Path 99483" d="M606.744,243.816h36.591a9.324,9.324,0,0,1,9.324,9.324v13.2a9.3,9.3,0,0,1-2.8,6.663,12.913,12.913,0,0,0-.588,3.216,4.993,4.993,0,0,0,1.143,3.491c.723.785,1.8,1.289,2.18,2.286.448,1.171-.28,2.527.118,3.715.263.79.975,1.35,1.334,2.1.572,1.2.134,2.617-.308,3.872-.74-3.928-4.276-4.511-4.729-6.394a5.92,5.92,0,0,0-2.443-2.942c-.964-.628-2.062-1.02-3.048-1.619a8.439,8.439,0,0,1-3.687-5.071H606.744a9.324,9.324,0,0,1-9.324-9.324v-13.2a9.324,9.324,0,0,1,9.324-9.324Z" transform="translate(-597.14 -243.524)" fill="#fff"/>
        <path id="Path_99484" data-name="Path 99484" d="M653.516,291.76h-.022a.3.3,0,0,1-.263-.235,6.81,6.81,0,0,0-2.959-4.276,4.291,4.291,0,0,1-1.765-2.107,5.661,5.661,0,0,0-2.32-2.768,13.256,13.256,0,0,0-1.6-.857,16.107,16.107,0,0,1-1.44-.757,8.685,8.685,0,0,1-3.754-5.032H606.53a9.622,9.622,0,0,1-9.61-9.61v-13.2a9.627,9.627,0,0,1,9.61-9.616h36.591a9.623,9.623,0,0,1,9.61,9.616v13.2a9.554,9.554,0,0,1-2.835,6.814,12.745,12.745,0,0,0-.56,3.071,4.626,4.626,0,0,0,1.07,3.289,6.837,6.837,0,0,0,.813.723,4.107,4.107,0,0,1,1.423,1.653,4.216,4.216,0,0,1,.09,2.028,3.915,3.915,0,0,0,.034,1.7,3.848,3.848,0,0,0,.667,1.087,5.137,5.137,0,0,1,.65.981c.605,1.278.185,2.723-.3,4.1a.283.283,0,0,1-.269.191Zm-46.992-47.877a9.048,9.048,0,0,0-9.039,9.039v13.2a9.048,9.048,0,0,0,9.039,9.039h33.083a.294.294,0,0,1,.28.213,8.113,8.113,0,0,0,3.558,4.9,15.7,15.7,0,0,0,1.4.728,14.093,14.093,0,0,1,1.664.9,6.146,6.146,0,0,1,2.566,3.116c.163.661.813,1.188,1.569,1.788a7.883,7.883,0,0,1,2.914,3.654,3.864,3.864,0,0,0,.022-2.735,4.919,4.919,0,0,0-.588-.88,3.347,3.347,0,0,1-.818-3.205,2.682,2.682,0,0,0-1.306-3.166,8.178,8.178,0,0,1-.874-.784,5.222,5.222,0,0,1-1.222-3.693,13.6,13.6,0,0,1,.6-3.289.268.268,0,0,1,.073-.129,8.957,8.957,0,0,0,2.718-6.455v-13.2a9.048,9.048,0,0,0-9.039-9.039H606.53Z" transform="translate(-596.92 -243.3)"/>
      </g>
      <path id="Path_99485" data-name="Path 99485" d="M615.245,264.487a.1.1,0,0,1,0-.191l32.047-.106h0a.1.1,0,1,1,0,.191l-32.047.106Z" transform="translate(-604.935 -252.484)"/>
      <path id="Path_99486" data-name="Path 99486" d="M615.245,281.117a.1.1,0,0,1,0-.191l32.047-.106h0a.1.1,0,1,1,0,.191l-32.047.107Z" transform="translate(-604.935 -259.795)"/>
      <path id="Path_99487" data-name="Path 99487" d="M621.805,272.807a.1.1,0,1,1,0-.191l24.7-.106h0a.1.1,0,1,1,0,.191l-24.7.106Z" transform="translate(-607.819 -256.142)"/>
    </g>
    <g id="Group_106328" data-name="Group 106328" transform="translate(176.343 157.367)">
      <g id="Group_106325" data-name="Group 106325" transform="translate(0 1.04)">
        <path id="Path_99488" data-name="Path 99488" d="M251.554,273.628c0-8.517-.191-36.233,0-36.642.269-.605-.359-1.586,7.391-1.922,8.417-.37,19.2-2.841,19.753,2.051.2,1.8-.106,23.989-.106,36.233,0,2.174-3.788,1.883-5.94,2.185a39.739,39.739,0,0,1-4.068.431,40.484,40.484,0,0,1-6.214-.4,52.372,52.372,0,0,1-10.815-1.933Z" transform="translate(-251.184 -233.829)" fill="#fff"/>
        <path id="Path_99489" data-name="Path 99489" d="M267.541,276.05a46.988,46.988,0,0,1-5.43-.42c-.42-.05-.846-.1-1.272-.146a45.584,45.584,0,0,1-9.6-1.8.29.29,0,0,1-.2-.275c0-2.55-.017-6.724-.034-11.555-.078-19.747-.067-24.93.056-25.2a1.444,1.444,0,0,0,.05-.162c.207-.762.443-1.619,7.593-1.933,1.905-.084,3.956-.275,5.945-.465,7.021-.661,13.645-1.289,14.11,2.774.123,1.109.062,9.4-.011,19.007-.045,6.113-.1,12.429-.1,17.259,0,1.995-2.611,2.18-4.707,2.331-.538.039-1.042.073-1.479.134a41.048,41.048,0,0,1-4.1.437c-.275.011-.555.017-.829.017Zm-15.92-2.852a46.2,46.2,0,0,0,9.285,1.709c.426.05.852.1,1.272.146a29.878,29.878,0,0,0,10.21-.028c.454-.062.969-.1,1.519-.14,1.956-.14,4.175-.3,4.175-1.76,0-4.83.045-11.151.1-17.259.067-9.19.134-17.864.011-18.94-.4-3.5-6.752-2.9-13.482-2.264-1.989.191-4.051.381-5.973.465-6.73.291-6.937,1.053-7.06,1.507a1.849,1.849,0,0,1-.067.213c-.112.829-.056,14.782-.017,24.992.017,4.707.034,8.786.034,11.353Zm-.028-36.317Z" transform="translate(-250.961 -233.606)"/>
      </g>
      <g id="Group_106326" data-name="Group 106326" transform="translate(0.05)">
        <path id="Path_99490" data-name="Path 99490" d="M251.6,236.167c8.641,0,19.2.129,27.144.129-.022-.431.308-4.035-3.564-4.035-4.432,0-12.3-.011-20.016-.011C251.535,232.25,251.524,236.156,251.6,236.167Z" transform="translate(-251.284 -231.97)" fill="#fff"/>
        <path id="Path_99491" data-name="Path 99491" d="M278.508,236.367c-3.889,0-8.321-.028-13.017-.062-4.78-.034-9.722-.067-14.132-.067h-.05c-.3-.05-.269-.387-.241-.74a3.835,3.835,0,0,1,3.855-3.749c4.393,0,8.831,0,12.658.006h7.357a3.829,3.829,0,0,1,2.807.992,4.485,4.485,0,0,1,1.048,3.177v.134a.287.287,0,0,1-.286.3Zm-26.869-.706c4.343,0,9.179.034,13.858.067,4.578.034,8.9.062,12.72.062a3.73,3.73,0,0,0-.88-2.634,3.243,3.243,0,0,0-2.4-.824h-7.357c-3.827,0-8.265-.006-12.658-.006a3.009,3.009,0,0,0-2.4.986,4.128,4.128,0,0,0-.891,2.348Z" transform="translate(-251.051 -231.75)"/>
      </g>
      <g id="Group_106327" data-name="Group 106327" transform="translate(0.077 39.959)">
        <path id="Path_99492" data-name="Path 99492" d="M251.609,303.744a7.368,7.368,0,0,0,.549,2.914c.488,1.121,3.138,2.264,4.427,2.264,6.046.056,10.512-.022,16.559-.022,5,0,5.508-3.911,5.508-5.329-6.125,0-17.987.078-27.043.168Z" transform="translate(-251.323 -303.284)" fill="#fff"/>
        <path id="Path_99493" data-name="Path 99493" d="M260.883,309.005c-1.435,0-2.925,0-4.528-.022-1.362,0-4.135-1.182-4.685-2.438a7.614,7.614,0,0,1-.572-3v-.022a.292.292,0,0,1,.286-.291c9.571-.1,21.2-.168,27.043-.168a.287.287,0,0,1,.286.286,6.264,6.264,0,0,1-.925,3.351,5.391,5.391,0,0,1-4.87,2.264c-2.253,0-4.348.011-6.343.022-1.905.011-3.754.022-5.693.022Zm-9.207-5.2a7,7,0,0,0,.521,2.51c.415.947,2.908,2.09,4.163,2.1,3.766.034,6.9.017,10.21,0,1.995-.011,4.063-.022,6.349-.022,4.5,0,5.144-3.329,5.211-4.752-5.873,0-17.1.073-26.454.168Z" transform="translate(-251.099 -303.06)"/>
      </g>
      <path id="Path_99494" data-name="Path 99494" d="M270.8,308.9a.286.286,0,0,1-.286-.28.292.292,0,0,1,.28-.3c1.788-.056,3.6-.078,5.391-.067a.289.289,0,0,1,0,.577h0c-1.782-.017-3.586.006-5.368.067H270.8Z" transform="translate(-259.556 -265.385)"/>
      <path id="Path_99495" data-name="Path 99495" d="M277.825,282.2H265.3a.1.1,0,0,1,0-.191h12.53a.1.1,0,0,1,0,.191Z" transform="translate(-257.221 -253.846)"/>
      <path id="Path_99496" data-name="Path 99496" d="M277.317,288.12h-7.862a.1.1,0,1,1,0-.191h7.862a.1.1,0,1,1,0,.191Z" transform="translate(-259.05 -256.449)"/>
      <path id="Path_99497" data-name="Path 99497" d="M277.317,276.271h-7.862a.1.1,0,1,1,0-.191h7.862a.1.1,0,1,1,0,.191Z" transform="translate(-259.05 -251.239)"/>
      <path id="Path_99498" data-name="Path 99498" d="M278.03,257.83H263.545a.1.1,0,0,1-.1-.1v-8.68a.1.1,0,0,1,.1-.1H278.03a.1.1,0,0,1,.1.1v8.68A.1.1,0,0,1,278.03,257.83Zm-14.39-.191H277.93v-8.484H263.641Z" transform="translate(-256.452 -239.316)"/>
    </g>
    <g id="Group_106331" data-name="Group 106331" transform="translate(118.899 130.111)">
      <g id="Group_106329" data-name="Group 106329" transform="translate(0 0)">
        <path id="Path_99499" data-name="Path 99499" d="M194.314,214.719a2.132,2.132,0,0,1,1.154-2.791c4.69-2.746,5-16.794.443-22.224-5-5.951-15.051-6.074-23.047-6.074-20.38,0-23.457,7.089-23.832,13.746-.448,8.064.891,16.357,10.955,18.352,8.321,1.653,20.24.9,26.667-.129,2.012-.488,3.149,1.065,3.878,1.782,1.8,1.776,3.441,3.973,6.113,4.556.992.219-1.322-3.738-2.342-7.229Z" transform="translate(-148.673 -183.339)" fill="#fff"/>
        <path id="Path_99500" data-name="Path 99500" d="M196.512,222.01a.4.4,0,0,1-.134-.017c-2.275-.5-3.81-2.1-5.3-3.654-.314-.325-.639-.667-.958-.981-.09-.09-.185-.191-.291-.3-.723-.762-1.709-1.8-3.323-1.412h-.022c-6.108.975-18.279,1.81-26.774.129-4.651-.925-7.89-3.3-9.627-7.06-1.345-2.914-1.838-6.6-1.563-11.588.163-2.959.829-6.724,4.522-9.582,3.855-2.987,10.266-4.438,19.6-4.438,7.626,0,18.077,0,23.266,6.181,3.088,3.676,3.838,10.949,2.981,15.931-.583,3.357-1.821,5.744-3.5,6.724a1.849,1.849,0,0,0-1.025,2.46h0a40.847,40.847,0,0,0,1.6,4.231c.852,2.017,1.188,2.852.88,3.222a.437.437,0,0,1-.342.157Zm-9.324-7.021a4.293,4.293,0,0,1,3.06,1.675c.1.1.191.2.275.286.325.325.656.661.969.992,1.4,1.463,2.847,2.97,4.9,3.463a15.833,15.833,0,0,0-.947-2.55,41.857,41.857,0,0,1-1.625-4.292h0a2.409,2.409,0,0,1,1.289-3.121c1.524-.891,2.667-3.138,3.222-6.326.841-4.853.123-11.919-2.852-15.46-5.021-5.973-15.309-5.973-22.829-5.973-20.083,0-23.171,6.814-23.541,13.477-.409,7.335.443,16.015,10.725,18.055,8.417,1.67,20.487.835,26.555-.129A3.429,3.429,0,0,1,187.187,214.989Z" transform="translate(-148.449 -183.11)"/>
      </g>
      <g id="Group_106330" data-name="Group 106330" transform="translate(8.263 9.945)">
        <path id="Path_99501" data-name="Path 99501" d="M169.989,201.372c-.577-.252-1.681,4.326-1.681,4.326s-4.225-.331-4.578.347c-.375.723,3.463,3.132,3.463,3.132s-1.563,4.612-1.076,4.881c.734.4,3.872-2.572,3.872-2.572s3.323,2.83,3.872,2.572c.28-.134-1.21-4.741-1.21-4.741S176.3,207,176.08,206.4c-.207-.566-4.416-.487-4.416-.487s-.919-4.2-1.681-4.533Z" transform="translate(-163.419 -201.08)" fill="#d1cef3"/>
        <path id="Path_99502" data-name="Path 99502" d="M166.028,214.151a.6.6,0,0,1-.275-.062c-.191-.106-.689-.381.869-5.01-1.8-1.149-3.777-2.617-3.373-3.385.364-.7,2.942-.639,4.612-.521.331-1.35,1.048-3.967,1.659-4.27a.424.424,0,0,1,.359-.011c.779.342,1.519,3.289,1.793,4.505,2.779-.039,4.276.191,4.455.684.129.347-.118.829-1.732,2.017-.644.476-1.311.919-1.631,1.121,1.491,4.64,1.238,4.763.992,4.881-.459.219-1.8-.605-3.984-2.449-.969.9-2.813,2.5-3.743,2.5Zm.056-.56h0c.431,0,2-1.138,3.474-2.538a.291.291,0,0,1,.387-.011,20.35,20.35,0,0,0,3.413,2.477,40.909,40.909,0,0,0-1.216-4.337.292.292,0,0,1,.118-.331,14.449,14.449,0,0,0,3.289-2.572,15.266,15.266,0,0,0-4.113-.3.294.294,0,0,1-.286-.224,14.3,14.3,0,0,0-1.44-4.276,17.376,17.376,0,0,0-1.362,4.074.286.286,0,0,1-.3.219c-2.085-.162-4.029-.078-4.3.191.034.375,1.586,1.647,3.357,2.757a.288.288,0,0,1,.118.336,19.969,19.969,0,0,0-1.154,4.544Zm9.52-7.279Zm-5.962-4.9Z" transform="translate(-163.195 -200.858)"/>
      </g>
      <path id="Path_99503" data-name="Path 99503" d="M210.8,203.821H199.875a.1.1,0,0,1,0-.191H210.8a.1.1,0,0,1,0,.191Z" transform="translate(-171.017 -192.131)"/>
      <path id="Path_99504" data-name="Path 99504" d="M210.672,217.341H199.745a.1.1,0,1,1,0-.191h10.927a.1.1,0,1,1,0,.191Z" transform="translate(-170.959 -198.075)"/>
      <path id="Path_99505" data-name="Path 99505" d="M211.154,210.581H195.705a.1.1,0,1,1,0-.191h15.449a.1.1,0,0,1,0,.191Z" transform="translate(-169.183 -195.103)"/>
      <path id="Path_99506" data-name="Path 99506" d="M211.154,224.1H195.705a.1.1,0,1,1,0-.191h15.449a.1.1,0,0,1,0,.191Z" transform="translate(-169.183 -201.047)"/>
    </g>
    <g id="Group_106333" data-name="Group 106333" transform="translate(231.716 70.724)">
      <g id="Group_106332" data-name="Group 106332" transform="translate(0 0)">
        <path id="Path_99507" data-name="Path 99507" d="M385.962,80v20.083a2.108,2.108,0,0,1-2.113,1.9H352.705a2.474,2.474,0,0,1-2.415-2.387l.151-19.865a2.207,2.207,0,0,1,2.113-2.017l30.92-.062A2.506,2.506,0,0,1,385.962,80Z" transform="translate(-350.004 -77.359)" fill="#fff"/>
        <path id="Path_99508" data-name="Path 99508" d="M383.626,102.032H352.481a2.764,2.764,0,0,1-2.7-2.673l.151-19.865a2.478,2.478,0,0,1,2.4-2.3l30.92-.062a2.785,2.785,0,0,1,2.779,2.634V99.847a2.388,2.388,0,0,1-2.4,2.185Zm-.375-24.325-30.92.062A1.932,1.932,0,0,0,350.5,79.5l-.151,19.865a2.186,2.186,0,0,0,2.124,2.1H383.62a1.819,1.819,0,0,0,1.827-1.608V79.769a2.22,2.22,0,0,0-2.2-2.057Z" transform="translate(-349.78 -77.13)"/>
      </g>
      <path id="Path_99509" data-name="Path 99509" d="M368.714,93.528a3.772,3.772,0,0,1-1.182-.185,6.765,6.765,0,0,1-1.715-.958,115.657,115.657,0,0,1-14.973-12.552.289.289,0,0,1,.409-.409,115.356,115.356,0,0,0,14.9,12.49,5.821,5.821,0,0,0,1.563.88c1.888.616,3.895-.7,5.43-1.916a120.085,120.085,0,0,0,12.5-11.4.289.289,0,1,1,.42.4A121.272,121.272,0,0,1,373.5,91.332c-1.345,1.065-3.037,2.2-4.78,2.2Z" transform="translate(-350.211 -78.102)"/>
      <path id="Path_99510" data-name="Path 99510" d="M352.976,110.42a.156.156,0,0,1-.073-.034.1.1,0,0,1,.011-.134c3.536-3,7.195-5.962,10.871-8.8a.1.1,0,0,1,.118.151c-3.676,2.835-7.329,5.788-10.865,8.792A.084.084,0,0,1,352.976,110.42Z" transform="translate(-351.143 -87.815)"/>
      <path id="Path_99511" data-name="Path 99511" d="M403.163,110.895a.238.238,0,0,1-.067-.028c-3.4-3.155-6.92-6.276-10.462-9.268a.1.1,0,1,1,.123-.146c3.547,3,7.066,6.119,10.467,9.274a.091.091,0,0,1,0,.134.086.086,0,0,1-.073.028Z" transform="translate(-368.606 -87.814)"/>
    </g>
    <g id="Group_106346" data-name="Group 106346" transform="translate(212.421 65.306)">
      <g id="Group_106334" data-name="Group 106334" transform="translate(87.707 42.292)">
        <path id="Path_99512" data-name="Path 99512" d="M484.417,143.471c-.118,5.228,3.082,10.568,8.019,12.294,2.69.936,5.637.807,8.394,1.524s5.564,2.8,5.581,5.643c.011,1.894-1.059,6.181,4.606,8.7,4.673,2.073,3.558,13.3-10.916,18.01-4.432,1.446-1.575-2.191-6.186-2.9A20.844,20.844,0,0,1,482.1,180.09,37.99,37.99,0,0,1,475,168.323c-1.995-4.914-3.39-10.344-2.157-15.5s5.777-9.817,11.571-9.358Z" transform="translate(-472.093 -143.153)" fill="#d1cef3"/>
        <path id="Path_99513" data-name="Path 99513" d="M498.216,190.046c-.958,0-1.311-.516-1.681-1.261a3.192,3.192,0,0,0-2.886-1.984,21.149,21.149,0,0,1-11.986-6.73,38.031,38.031,0,0,1-7.15-11.852c-2.538-6.259-3.228-11.241-2.169-15.673a13.356,13.356,0,0,1,4.169-6.937,10.33,10.33,0,0,1,7.7-2.645.284.284,0,0,1,.263.291c-.123,5.335,3.172,10.389,7.828,12.014a22.047,22.047,0,0,0,4.6.891,28.548,28.548,0,0,1,3.777.628c2.779.723,5.777,2.886,5.8,5.917,0,.247-.017.532-.034.835-.118,2.051-.308,5.486,4.466,7.6,1.743.773,2.746,2.757,2.622,5.183-.213,4.2-3.9,10.215-13.566,13.365a5.806,5.806,0,0,1-1.754.353Zm-14.8-46.538c-5.407,0-9.414,4.606-10.507,9.167-1.031,4.315-.347,9.184,2.141,15.326a37.466,37.466,0,0,0,7.038,11.678,20.575,20.575,0,0,0,11.655,6.556,3.754,3.754,0,0,1,3.312,2.292c.42.835.65,1.3,2.74.616,9.392-3.06,12.967-8.837,13.168-12.849.112-2.18-.762-3.951-2.281-4.629-5.138-2.281-4.931-5.962-4.808-8.164.017-.308.034-.572.028-.8-.017-2.729-2.8-4.7-5.368-5.368a28.451,28.451,0,0,0-3.7-.616,22.519,22.519,0,0,1-4.718-.919c-4.808-1.675-8.226-6.814-8.215-12.294-.163-.011-.331-.011-.493-.011Z" transform="translate(-471.866 -142.933)"/>
      </g>
      <g id="Group_106335" data-name="Group 106335" transform="translate(67.295 30.372)">
        <path id="Path_99514" data-name="Path 99514" d="M440.107,122.18c1.524,7.43,3,15.427-.045,22.381-.992,2.258-2.426,4.315-3.239,6.64a20.781,20.781,0,0,0-.734,8.7c.5,5.52,2.157,11.179,6.035,15.135s10.372,5.676,15.158,2.891c4.2-2.449,6.119-7.711,5.856-12.563s-2.337-9.408-4.522-13.751a170.951,170.951,0,0,0-18.509-29.424Z" transform="translate(-435.663 -121.89)" fill="#d1cef3"/>
        <path id="Path_99515" data-name="Path 99515" d="M451.774,179.333A14.366,14.366,0,0,1,441.7,175c-3.457-3.525-5.52-8.674-6.119-15.309a20.785,20.785,0,0,1,.745-8.814,26.914,26.914,0,0,1,1.855-3.911c.482-.891.981-1.816,1.39-2.751,2.886-6.59,1.72-13.953.028-22.207a.289.289,0,0,1,.51-.235,171.4,171.4,0,0,1,18.542,29.475c2.152,4.281,4.281,8.876,4.55,13.869.3,5.5-2.057,10.529-6,12.827a10.739,10.739,0,0,1-5.43,1.4ZM440.41,123.084c1.575,7.867,2.5,14.939-.308,21.361-.42.958-.925,1.894-1.412,2.791a25.983,25.983,0,0,0-1.816,3.827,20.213,20.213,0,0,0-.717,8.573c.588,6.495,2.594,11.527,5.957,14.956,4.079,4.163,10.451,5.385,14.81,2.841,3.754-2.191,6-7.016,5.71-12.3-.263-4.881-2.365-9.414-4.488-13.639a172.608,172.608,0,0,0-17.73-28.421Z" transform="translate(-435.439 -121.662)"/>
      </g>
      <g id="Group_106336" data-name="Group 106336" transform="translate(74.123 55.2)">
        <path id="Path_99516" data-name="Path 99516" d="M456.21,177.9a80.259,80.259,0,0,0-.51-9.145,17.673,17.673,0,0,1,5.088-1.642,2.958,2.958,0,0,1,2.3.3c.381.3,2.2-1.3,2.382-.857,1.289,3.026,1.4,7.335,2.69,10.361.1.235,4.617-.185,4.718.05.42.986.067,9.184-.247,9.392-16.536,10.994-24.5-4.729-24.5-4.729a50.749,50.749,0,0,1,8.075-3.726Z" transform="translate(-447.847 -166.194)" fill="#fff"/>
        <path id="Path_99517" data-name="Path 99517" d="M461.284,190.328a13.906,13.906,0,0,1-3.508-.448c-6.724-1.771-10.086-8.276-10.12-8.344a.287.287,0,0,1,.106-.375,51.384,51.384,0,0,1,7.946-3.687,43.69,43.69,0,0,0-.28-6.085c-.09-.9-.185-1.838-.235-2.835a.294.294,0,0,1,.157-.275,17.912,17.912,0,0,1,5.172-1.67,3.276,3.276,0,0,1,2.494.336,4.081,4.081,0,0,0,.953-.471c.633-.37,1.009-.577,1.3-.482a.4.4,0,0,1,.247.23,26.537,26.537,0,0,1,1.362,5.239,26.985,26.985,0,0,0,1.278,5c.331.039,1.356,0,2.129-.034,2.37-.1,2.527-.067,2.639.2.3.7.207,4.091.174,5.11-.151,4.382-.415,4.561-.527,4.634-3.956,2.628-7.739,3.951-11.291,3.951ZM448.3,181.514c.667,1.166,3.872,6.3,9.627,7.811,4.343,1.143,9.145,0,14.267-3.385a45.2,45.2,0,0,0,.235-8.96c-.347-.034-1.362,0-2.124.034-2.365.1-2.516.067-2.634-.2a26.537,26.537,0,0,1-1.362-5.239,26.985,26.985,0,0,0-1.278-5,5.582,5.582,0,0,0-.773.409c-.684.4-1.227.717-1.569.448a2.743,2.743,0,0,0-2.073-.241,17.253,17.253,0,0,0-4.836,1.53c.056.913.135,1.743.224,2.622a43.136,43.136,0,0,1,.275,6.354.278.278,0,0,1-.185.258,53.456,53.456,0,0,0-7.789,3.564Zm23.877,4.46Zm-16.189-8.293Z" transform="translate(-447.625 -165.969)"/>
      </g>
      <g id="Group_106337" data-name="Group 106337" transform="translate(69.713 24.661)">
        <path id="Path_99518" data-name="Path 99518" d="M440.293,119.519c.488,3.67,1.227,7.514.28,11.168-.516,1.995-.471,12.121,7.654,15a15.766,15.766,0,0,0,13.583-1.468c2.987-1.81,6.618-7.442,5.895-13.034,2.471.684,4.92-.981,4.948-3.205a3.055,3.055,0,0,0-2.891-2.813,2.741,2.741,0,0,0-2.174.74,34.152,34.152,0,0,1-.919-8.31c-2.813-3.093-7.318-4.679-11.824-5.351a16.825,16.825,0,0,0-4.533-.174c-4.326.538-10.523,3.676-10.025,7.447Z" transform="translate(-439.976 -111.696)" fill="#fff"/>
        <path id="Path_99519" data-name="Path 99519" d="M453.273,146.671a15.968,15.968,0,0,1-5.363-.936c-8.12-2.88-8.473-12.911-7.839-15.348.818-3.155.353-6.489-.1-9.717-.062-.448-.129-.9-.185-1.345h0a4.144,4.144,0,0,1,.981-3.127c1.933-2.5,6.231-4.259,9.3-4.64a17.22,17.22,0,0,1,4.612.174c3.721.56,8.826,1.956,11.992,5.447a.261.261,0,0,1,.073.2,33.544,33.544,0,0,0,.813,7.811,2.906,2.906,0,0,1,1.972-.532,2.957,2.957,0,0,1,2.146.9,3.218,3.218,0,0,1,1.048,2.208,3.547,3.547,0,0,1-1.479,2.785,4.41,4.41,0,0,1-3.424.784c.532,5.7-3.132,11.123-6.074,12.911a16.245,16.245,0,0,1-8.467,2.432Zm-12.916-27.418c.062.443.123.891.185,1.339.459,3.284.936,6.674.09,9.941-.359,1.367-.8,11.723,7.475,14.659a15.375,15.375,0,0,0,13.336-1.446c2.807-1.7,6.472-7.223,5.76-12.748a.285.285,0,0,1,.1-.252.3.3,0,0,1,.263-.062,3.861,3.861,0,0,0,3.329-.6,2.981,2.981,0,0,0,1.25-2.331,2.613,2.613,0,0,0-.869-1.782,2.387,2.387,0,0,0-1.72-.74,2.454,2.454,0,0,0-2.012.684.283.283,0,0,1-.275.039.3.3,0,0,1-.185-.207,34.206,34.206,0,0,1-.925-8.265c-3.06-3.3-7.974-4.64-11.577-5.178a16.781,16.781,0,0,0-4.455-.174c-2.947.37-7.072,2.045-8.91,4.421a3.594,3.594,0,0,0-.863,2.7h0Z" transform="translate(-439.754 -111.469)"/>
      </g>
      <path id="Path_99520" data-name="Path 99520" d="M467.769,142.815a5.634,5.634,0,0,1-5.34-5.11,6.091,6.091,0,0,1,.992-4.247,4.928,4.928,0,0,1,7.4-.953,6.224,6.224,0,0,1,1.048,8.1,4.977,4.977,0,0,1-3.48,2.169A4.609,4.609,0,0,1,467.769,142.815Zm-.247-10.994a4.58,4.58,0,0,0-.549.034,4.421,4.421,0,0,0-3.076,1.928,5.5,5.5,0,0,0-.9,3.85,4.982,4.982,0,0,0,5.312,4.578,4.42,4.42,0,0,0,3.076-1.928,5.5,5.5,0,0,0,.9-3.85h0a5.488,5.488,0,0,0-1.844-3.491,4.477,4.477,0,0,0-2.919-1.115Z" transform="translate(-379.986 -95.505)"/>
      <path id="Path_99521" data-name="Path 99521" d="M441.543,144.021a5.076,5.076,0,0,1-3.295-1.255,6.049,6.049,0,0,1-2.04-3.855,5.282,5.282,0,1,1,10.428-1.35h0a5.557,5.557,0,0,1-4.472,6.422A4.636,4.636,0,0,1,441.543,144.021Zm-.247-10.994a4.5,4.5,0,0,0-.544.034,4.975,4.975,0,0,0-3.973,5.777,5.487,5.487,0,0,0,1.844,3.491,4.417,4.417,0,0,0,3.469,1.081,4.975,4.975,0,0,0,3.973-5.777,5.057,5.057,0,0,0-4.769-4.612Z" transform="translate(-368.459 -96.033)"/>
      <g id="Group_106338" data-name="Group 106338" transform="translate(78.965 0)">
        <circle id="Ellipse_129837" data-name="Ellipse 129837" cx="9.347" cy="9.347" r="9.347" transform="translate(0 9.429) rotate(-30.29)" fill="#d1cef3"/>
        <path id="Path_99522" data-name="Path 99522" d="M471.5,92.355a9.654,9.654,0,0,1-4.528-1.138,9.549,9.549,0,0,1-4.679-5.7,9.636,9.636,0,0,1,13.757-11.3,9.634,9.634,0,0,1-1.737,17.718A9.7,9.7,0,0,1,471.5,92.355Zm.022-18.7a8.932,8.932,0,0,0-2.645.4,9.079,9.079,0,1,0,2.645-.387Z" transform="translate(-458.731 -69.93)"/>
      </g>
      <g id="Group_106339" data-name="Group 106339" transform="translate(66.547 17.199)">
        <path id="Path_99523" data-name="Path 99523" d="M464.787,120.426c-2.376-3.682-3.833-6.332-4.617-10.815-8.77,5.178-17.1,4.292-25.491,3.962a8.116,8.116,0,0,1,.712-4.247,14.633,14.633,0,0,1,8.333-8.445A23.973,23.973,0,0,1,455.906,98.8a18.53,18.53,0,0,1,9.784,5.1,16.456,16.456,0,0,1,4.567,8.405c.544,2.74-.123,4.757-1.35,7.542a3.184,3.184,0,0,0-2.135-.594,3.906,3.906,0,0,0-1.978,1.166Z" transform="translate(-434.335 -98.372)" fill="#d1cef3"/>
        <path id="Path_99524" data-name="Path 99524" d="M464.557,120.5h-.039a.3.3,0,0,1-.207-.129c-2.141-3.317-3.738-6.041-4.584-10.518-7.968,4.567-15.684,4.219-23.154,3.889-.712-.034-1.429-.062-2.141-.09a.283.283,0,0,1-.275-.252,8.419,8.419,0,0,1,.734-4.4,14.893,14.893,0,0,1,8.478-8.59c3.183-1.418,8.092-2.712,12.339-2.1a18.673,18.673,0,0,1,9.941,5.172,16.616,16.616,0,0,1,4.651,8.562c.583,2.936-.235,5.138-1.373,7.716a.307.307,0,0,1-.168.157.3.3,0,0,1-.23-.017l-.084-.045a2.747,2.747,0,0,0-1.86-.516,3.694,3.694,0,0,0-1.838,1.093.285.285,0,0,1-.2.073Zm-4.617-11.392a.328.328,0,0,1,.123.028.29.29,0,0,1,.162.213,25.68,25.68,0,0,0,4.393,10.423,3.8,3.8,0,0,1,1.866-1.009,3.006,3.006,0,0,1,2.051.476c1.216-2.807,1.7-4.629,1.21-7.089a16.222,16.222,0,0,0-4.477-8.248,18.134,18.134,0,0,0-9.633-5.026c-4.124-.594-8.915.672-12.02,2.057a14.366,14.366,0,0,0-8.187,8.293,8.06,8.06,0,0,0-.717,3.855l1.894.084c7.492.336,15.242.678,23.188-4.018A.271.271,0,0,1,459.94,109.106Z" transform="translate(-434.105 -98.153)"/>
      </g>
      <path id="Path_99525" data-name="Path 99525" d="M464.4,159.959a2.569,2.569,0,0,1-1.659-.572.287.287,0,1,1,.364-.443,2.329,2.329,0,0,0,2.421.2,4.513,4.513,0,0,0,2.337-2.3.287.287,0,1,1,.521.241,5.112,5.112,0,0,1-2.639,2.583,3.5,3.5,0,0,1-1.35.286Z" transform="translate(-380.099 -106.686)"/>
      <path id="Path_99526" data-name="Path 99526" d="M469.948,141.441a.886.886,0,1,0-.768.947A.863.863,0,0,0,469.948,141.441Z" transform="translate(-382.542 -99.667)"/>
      <path id="Path_99527" data-name="Path 99527" d="M446.608,142.671a.886.886,0,1,0-.768.947A.863.863,0,0,0,446.608,142.671Z" transform="translate(-372.28 -100.208)"/>
      <path id="Path_99528" data-name="Path 99528" d="M455.305,147.864a.317.317,0,0,1-.1-.017l-1.194-.454a.812.812,0,0,1-.51-.42.8.8,0,0,1,.2-.756,4.886,4.886,0,0,0,.807-4.2.288.288,0,1,1,.555-.151,5.452,5.452,0,0,1-.9,4.7.585.585,0,0,0-.123.213,1.835,1.835,0,0,0,.174.078l1.194.454a.286.286,0,0,1,.168.37.283.283,0,0,1-.269.185Z" transform="translate(-376.068 -100.077)"/>
      <path id="Path_99529" data-name="Path 99529" d="M453.756,138.486a.283.283,0,0,1-.286-.286c-.011-.807.773-1.367,1.558-1.569a4.2,4.2,0,0,1,3.721.857.29.29,0,0,1-.381.437,3.635,3.635,0,0,0-3.2-.734c-.566.146-1.132.532-1.126,1a.288.288,0,0,1-.286.291Z" transform="translate(-376.071 -97.816)"/>
      <path id="Path_99530" data-name="Path 99530" d="M479.786,137.1a.287.287,0,0,1-.286-.286.3.3,0,0,1,.286-.291l4.326-.011a.3.3,0,0,1,.291.286.3.3,0,0,1-.286.291l-4.326.011h0Z" transform="translate(-387.515 -97.818)"/>
      <path id="Path_99531" data-name="Path 99531" d="M488.424,139.919h0a.292.292,0,0,1-.286-.291,7.8,7.8,0,0,0-.616-3.11.286.286,0,0,1,.527-.224,8.438,8.438,0,0,1,.661,3.34.287.287,0,0,1-.286.286Z" transform="translate(-391.032 -97.646)"/>
      <g id="Group_106340" data-name="Group 106340" transform="translate(41.38 65.561)">
        <path id="Path_99532" data-name="Path 99532" d="M477.134,219.862c-3.827-10.462-5.94-20.784-14.967-28.315a26.89,26.89,0,0,0-15.583-6.567c-.37,5.833-7.145,9.672-10.77,10.109-1.978.235-9.313,1.21-9.313-7.442-2.393.953-10.361,1.933-13.561,11.751-1.306,4.018-3.648,19.383-11.364,28.292-1.821,2.1-3.508-11.9-6.13-10.961-2.572.913-5.536,2.443-5.732,5.172-.151,2.124,1.6,3.973,3.553,4.813,4.2,1.8,5.777,10.552,10.3,11.19,4.707.661,12.227,2.4,17.915-15.393,2.908,2.908,4.785,6.029,8.047,7.789,9.4,5.066,40.682,10.759,45.781,11.661a1.88,1.88,0,0,0,1.552-.667,31.029,31.029,0,0,0,.269-21.422Z" transform="translate(-389.417 -184.688)" fill="#fff"/>
        <path id="Path_99533" data-name="Path 99533" d="M475.211,242.019a.877.877,0,0,1-.174-.011c-6.018-1.07-36.513-6.651-45.865-11.695a20.354,20.354,0,0,1-5.559-5.032c-.7-.813-1.429-1.647-2.225-2.471-2.421,7.4-5.368,12.025-8.994,14.143-3.166,1.849-6.186,1.412-8.613,1.059l-.476-.067c-2.561-.359-4.2-3.138-5.794-5.822-1.334-2.253-2.718-4.584-4.584-5.391-1.972-.846-3.895-2.751-3.726-5.1.162-2.292,2.1-4.063,5.923-5.419a1.023,1.023,0,0,1,.829.056c1.2.6,2.129,3.564,3.02,6.427.6,1.928,1.423,4.561,1.972,4.679.056.011.129-.056.179-.112,6.147-7.094,8.893-18.481,10.372-24.6.375-1.558.672-2.791.936-3.592,2.8-8.6,9.319-10.568,12.457-11.515.51-.151.947-.286,1.272-.415a.3.3,0,0,1,.269.028.3.3,0,0,1,.129.241c0,2.622.695,4.567,2.057,5.777,2.191,1.944,5.587,1.535,6.864,1.384h.067c3.48-.426,10.159-4.169,10.518-9.845a.265.265,0,0,1,.1-.2.286.286,0,0,1,.207-.073,27.08,27.08,0,0,1,15.752,6.635c7.509,6.27,10.255,14.384,13.157,22.98.605,1.788,1.227,3.631,1.894,5.458h0a31.413,31.413,0,0,1-.275,21.635,2.126,2.126,0,0,1-1.7.852Zm-53.945-20.038a.275.275,0,0,1,.2.084c.941.941,1.776,1.905,2.583,2.835a19.957,19.957,0,0,0,5.4,4.9c9.28,5,39.69,10.568,45.691,11.633a1.7,1.7,0,0,0,1.238-.5,31.01,31.01,0,0,0,.263-21.21h0c-.672-1.832-1.294-3.682-1.9-5.469-2.875-8.517-5.6-16.559-12.983-22.722a26.565,26.565,0,0,0-15.135-6.483,10.547,10.547,0,0,1-4.247,6.993,14.754,14.754,0,0,1-6.752,3.088h-.067c-1.35.168-4.931.6-7.318-1.519-1.423-1.261-2.174-3.211-2.247-5.8-.269.09-.583.185-.925.291-3.272.992-9.369,2.83-12.076,11.14-.252.784-.549,2.006-.925,3.547-1.491,6.164-4.259,17.64-10.5,24.841a.737.737,0,0,1-.734.3c-.841-.174-1.435-1.95-2.41-5.071-.779-2.488-1.748-5.592-2.729-6.08a.438.438,0,0,0-.381-.028c-3.581,1.272-5.4,2.88-5.542,4.92s1.653,3.782,3.379,4.528c2.04.874,3.469,3.289,4.853,5.626,1.591,2.684,3.093,5.223,5.379,5.548l.482.067c4.657.678,11.695,1.7,17.119-15.264a.276.276,0,0,1,.207-.191c.022,0,.045-.006.067-.006Z" transform="translate(-389.192 -184.459)"/>
      </g>
      <g id="Group_106341" data-name="Group 106341" transform="translate(58.363 117.865)">
        <path id="Path_99534" data-name="Path 99534" d="M422.4,282.074q10.692.227,21.378.46l.028-3.631-23.793-.583Z" transform="translate(-419.724 -278.028)" fill="#fff"/>
        <path id="Path_99535" data-name="Path 99535" d="M443.55,282.591h-.006l-21.378-.46a.275.275,0,0,1-.235-.134l-2.387-3.754a.283.283,0,0,1-.006-.3.275.275,0,0,1,.258-.146l23.793.583a.287.287,0,0,1,.28.291l-.028,3.631a.271.271,0,0,1-.09.2.3.3,0,0,1-.2.084ZM422.33,281.56l20.935.448.022-3.054-22.969-.56,2.017,3.166Z" transform="translate(-419.5 -277.799)"/>
      </g>
      <g id="Group_106342" data-name="Group 106342" transform="translate(65.424 104.359)">
        <path id="Path_99536" data-name="Path 99536" d="M484.765,260.375c-8.585-.476-17.225-1.07-25.866-1.664-.773-.129-4.617-.678-5.564-.818a8.517,8.517,0,0,1-2.309-.756c-2.572-1.188-8.08-3.513-9.313-2.824a15.229,15.229,0,0,0-7.414,5.469c-1.126,1.451-2.051,3.861-1.586,4.276a.83.83,0,0,0,1.076.1,13.557,13.557,0,0,1,6.59-6.534,19.176,19.176,0,0,0-3.7,2.723,7.263,7.263,0,0,0-2.432,3.889.507.507,0,0,0,.028.353c.157.252.549.106.779-.078.459-.359,6.366-5.155,7.47-5.032-1.468.555-6.7,4.8-6.724,5.251a.9.9,0,0,0,.168.611.869.869,0,0,0,.807.258,2.3,2.3,0,0,0,.807-.353,38.651,38.651,0,0,1,5.06-3.071,3.009,3.009,0,0,1,2.835-.034,13.63,13.63,0,0,0-4.427,2.69,2.617,2.617,0,0,0-.51.65c-.2.359-.426.88-.146,1.177.454.488.841.241,1.233.011a26.716,26.716,0,0,1,4.841-2.55,1.8,1.8,0,0,1,1.608-.084,12.927,12.927,0,0,0,6.427,1.692,20.939,20.939,0,0,1,4.444.908c22.767,6.276,29.57,8.775,35.084,6.4,1.081-.465,1.446-1.031,1.081-2.886-.958-4.948-1.9-7.761-10.355-9.778Z" transform="translate(-432.315 -253.913)" fill="#fff"/>
        <path id="Path_99537" data-name="Path 99537" d="M489.2,274.006c-4.36,0-10.568-1.737-22.252-5-2.46-.689-5.25-1.468-8.288-2.3a21.019,21.019,0,0,0-4.382-.9,13.636,13.636,0,0,1-6.573-1.737,1.581,1.581,0,0,0-1.345.112,26.216,26.216,0,0,0-4.785,2.522l-.039.022a1.1,1.1,0,0,1-1.558-.078c-.465-.493-.034-1.261.107-1.513a2.861,2.861,0,0,1,.566-.723,13.725,13.725,0,0,1,3.878-2.488,3.579,3.579,0,0,0-1.984.308,19.129,19.129,0,0,0-3.351,1.961c-.538.364-1.1.745-1.67,1.093a2.584,2.584,0,0,1-.908.392,1.126,1.126,0,0,1-1.076-.359,1.153,1.153,0,0,1-.23-.807.691.691,0,0,1,.2-.359c-.09.073-.179.146-.275.219s-.168.134-.2.163a1.129,1.129,0,0,1-.818.263.571.571,0,0,1-.387-.263.62.62,0,0,1-.09-.336,1.094,1.094,0,0,1-1.418-.129c-.751-.667.594-3.441,1.547-4.668a15.369,15.369,0,0,1,7.531-5.564c1.468-.74,7.15,1.731,9.543,2.83a8.207,8.207,0,0,0,2.23.728c.258.039.734.106,1.3.191,1.552.224,3.67.532,4.259.628,8.433.577,17.153,1.177,25.849,1.664a.155.155,0,0,1,.05.006c8.63,2.062,9.6,4.993,10.574,10.008.364,1.86.056,2.639-1.255,3.205a11.552,11.552,0,0,1-4.735.913Zm-41.92-10.636a1.352,1.352,0,0,1,.74.2,12.964,12.964,0,0,0,6.287,1.647,21.111,21.111,0,0,1,4.505.919c3.037.835,5.828,1.619,8.288,2.3,16.4,4.584,21.916,6.13,26.606,4.113.885-.381,1.266-.757.913-2.566-.953-4.909-1.838-7.57-10.114-9.548-8.691-.482-17.41-1.081-25.844-1.664h-.028c-.56-.09-2.785-.415-4.259-.628-.566-.084-1.042-.151-1.3-.191a8.909,8.909,0,0,1-2.387-.779c-3.85-1.776-8.142-3.345-9.05-2.835a.2.2,0,0,1-.062.022,14.944,14.944,0,0,0-7.262,5.368c-1.188,1.53-1.827,3.6-1.619,3.889a.571.571,0,0,0,.65.123,13.93,13.93,0,0,1,6.7-6.607.285.285,0,0,1,.375.129.289.289,0,0,1-.118.381,19.011,19.011,0,0,0-3.648,2.684,6.757,6.757,0,0,0-2.342,3.726c-.017.118-.011.151-.006.157a.653.653,0,0,0,.359-.157c.034-.028.1-.078.2-.157,6.343-5.06,7.2-4.965,7.481-4.931a.287.287,0,0,1,.067.555,31.8,31.8,0,0,0-6.539,5.038.576.576,0,0,0,.106.375.589.589,0,0,0,.532.151,2.122,2.122,0,0,0,.706-.314c.555-.336,1.109-.712,1.642-1.076a19.64,19.64,0,0,1,3.457-2.017,3.288,3.288,0,0,1,3.11,0,.286.286,0,0,1-.062.5,13.236,13.236,0,0,0-4.332,2.628,2.3,2.3,0,0,0-.454.577c-.23.415-.3.717-.19.841.275.3.448.213.846-.022l.028-.017a27.2,27.2,0,0,1,4.875-2.572,3.192,3.192,0,0,1,1.132-.269Z" transform="translate(-432.099 -253.698)"/>
      </g>
      <g id="Group_106345" data-name="Group 106345" transform="translate(0 88.469)">
        <g id="Group_106343" data-name="Group 106343">
          <path id="Path_99538" data-name="Path 99538" d="M315.86,225.85l46.476.258,16.015,32.9-46.039-.118Z" transform="translate(-315.572 -225.564)" fill="#d1cef3"/>
          <path id="Path_99539" data-name="Path 99539" d="M378.125,259.068h0l-46.039-.118a.3.3,0,0,1-.258-.157l-16.452-33.039a.293.293,0,0,1,.011-.28.287.287,0,0,1,.247-.134h0l46.476.252a.284.284,0,0,1,.258.163l16.021,32.9a.279.279,0,0,1-.017.28A.287.287,0,0,1,378.125,259.068Zm-45.86-.689,45.4.112-15.74-32.321-45.826-.252,16.166,32.461Z" transform="translate(-315.346 -225.34)"/>
        </g>
        <g id="Group_106344" data-name="Group 106344" transform="translate(25.862 13.374)">
          <path id="Path_99540" data-name="Path 99540" d="M365.544,249.76c-1.317-.129-2.763.224-3.3,1.435a3.283,3.283,0,0,0,.852,3.626,4.219,4.219,0,0,0,3.721.891,2.876,2.876,0,0,0,1.793-1.087,2.545,2.545,0,0,0,.4-1.412c.011-1.631-.734-3.177-3.469-3.446Z" transform="translate(-361.722 -249.439)" fill="#fff"/>
          <path id="Path_99541" data-name="Path 99541" d="M365.607,255.871a4.358,4.358,0,0,1-2.925-1.076,3.574,3.574,0,0,1-.925-3.956c.521-1.177,1.86-1.776,3.592-1.6,3.1.3,3.738,2.2,3.726,3.738a2.84,2.84,0,0,1-.448,1.575,3.189,3.189,0,0,1-1.967,1.21,4.78,4.78,0,0,1-1.053.118Zm-.784-6.08a2.621,2.621,0,0,0-2.538,1.289,2.979,2.979,0,0,0,.784,3.295,3.92,3.92,0,0,0,3.463.824,2.611,2.611,0,0,0,1.619-.969,2.31,2.31,0,0,0,.353-1.255c.011-1.911-1.037-2.947-3.211-3.16C365.181,249.8,365.018,249.792,364.822,249.792Z" transform="translate(-361.498 -249.207)"/>
        </g>
      </g>
      <path id="Path_99542" data-name="Path 99542" d="M512.375,241.765a.29.29,0,0,1-.275-.2c-3.233-9.789-5.06-15.987-5.06-29.413a.286.286,0,1,1,.572,0c0,13.336,1.821,19.495,5.032,29.228a.289.289,0,0,1-.185.364.253.253,0,0,1-.09.017Z" transform="translate(-399.623 -130.949)"/>
      <path id="Path_99543" data-name="Path 99543" d="M443.924,235.361a.292.292,0,0,1-.235-.123c-4.169-6-3.037-10.383-1.95-14.631a23.234,23.234,0,0,0,1.02-6.73.287.287,0,0,1,.275-.3.284.284,0,0,1,.3.275,23.733,23.733,0,0,1-1.037,6.892c-1.1,4.309-2.152,8.383,1.866,14.16a.3.3,0,0,1-.073.4.292.292,0,0,1-.162.05Z" transform="translate(-370.47 -131.701)"/>
      <path id="Path_99544" data-name="Path 99544" d="M480.5,98.383a.249.249,0,0,1-.073-.028,12.949,12.949,0,0,0-8.131-4.035.1.1,0,0,1,.022-.191,13.129,13.129,0,0,1,8.254,4.091.1.1,0,0,1,0,.134.093.093,0,0,1-.067.028Z" transform="translate(-384.31 -79.185)"/>
      <path id="Path_99545" data-name="Path 99545" d="M487.26,97.843a.155.155,0,0,1-.073-.034,9.289,9.289,0,0,0-2.264-1.922.1.1,0,0,1-.034-.134.1.1,0,0,1,.135-.034,9.379,9.379,0,0,1,2.314,1.967.1.1,0,0,1-.011.134.084.084,0,0,1-.062.022Z" transform="translate(-389.878 -79.878)"/>
      <path id="Path_99546" data-name="Path 99546" d="M487.505,129.954a.107.107,0,0,1-.084-.045,26.6,26.6,0,0,1-2.236-4.421.1.1,0,0,1,.179-.067,26.629,26.629,0,0,0,2.219,4.388.1.1,0,0,1-.028.134.09.09,0,0,1-.05.017Z" transform="translate(-390.012 -92.915)"/>
      <path id="Path_99547" data-name="Path 99547" d="M491.506,131.517a.092.092,0,0,1-.084-.05l-.88-1.675a.1.1,0,1,1,.168-.09l.88,1.675a.1.1,0,0,1-.039.129.132.132,0,0,1-.045.011Z" transform="translate(-392.365 -94.803)"/>
      <path id="Path_99548" data-name="Path 99548" d="M460.775,224.618a51.591,51.591,0,0,1-12.541-1.406.1.1,0,1,1,.05-.185c10.406,2.606,21.63,1.037,31.531-.347a.1.1,0,1,1,.022.191,137.58,137.58,0,0,1-19.063,1.754Z" transform="translate(-373.738 -135.701)"/>
      <path id="Path_99549" data-name="Path 99549" d="M462.963,238.731a77.551,77.551,0,0,1-18.4-2.2.1.1,0,0,1-.073-.118.1.1,0,0,1,.118-.073,77.815,77.815,0,0,0,33.818.644.095.095,0,1,1,.039.185,77.236,77.236,0,0,1-15.5,1.558Z" transform="translate(-372.121 -141.706)"/>
      <path id="Path_99550" data-name="Path 99550" d="M534.17,265.025a.155.155,0,0,1-.073-.034,17.677,17.677,0,0,0-16.166-5.878.1.1,0,1,1-.034-.191,17.871,17.871,0,0,1,16.346,5.945.1.1,0,0,1-.011.134A.084.084,0,0,1,534.17,265.025Z" transform="translate(-404.361 -151.531)"/>
      <path id="Path_99551" data-name="Path 99551" d="M540.919,259.7a.1.1,0,0,1-.034-.006,5.776,5.776,0,0,1-1.636-1.154c-.174-.157-.353-.314-.532-.465a7.862,7.862,0,0,0-3.85-1.7.094.094,0,1,1,.028-.185,8.117,8.117,0,0,1,3.945,1.743c.185.151.364.314.538.465a5.721,5.721,0,0,0,1.58,1.121.1.1,0,0,1,.056.123.1.1,0,0,1-.09.062Z" transform="translate(-411.821 -150.433)"/>
    </g>
    <g id="Group_106350" data-name="Group 106350" transform="translate(321.043 190.467)">
      <g id="Group_106347" data-name="Group 106347" transform="translate(0 6.635)">
        <path id="Path_99552" data-name="Path 99552" d="M509.823,319.1,509.7,303.17l28.225.062.134,15.8Z" transform="translate(-509.414 -302.884)" fill="#fff"/>
        <path id="Path_99553" data-name="Path 99553" d="M509.6,319.157a.287.287,0,0,1-.286-.286l-.123-15.92a.288.288,0,0,1,.084-.207.284.284,0,0,1,.2-.084h0l28.225.062a.287.287,0,0,1,.286.286l.134,15.8a.288.288,0,0,1-.084.207.284.284,0,0,1-.2.084l-28.236.062h0Zm.168-15.92.118,15.343,27.659-.062-.129-15.225-27.648-.062Z" transform="translate(-509.19 -302.66)"/>
      </g>
      <g id="Group_106348" data-name="Group 106348" transform="translate(7.66 11.465)">
        <path id="Path_99554" data-name="Path 99554" d="M536.258,323.282h0l-13.3-.062a.1.1,0,1,1,0-.191h0l13.3.062a.1.1,0,0,1,0,.191Z" transform="translate(-522.86 -316.446)"/>
        <path id="Path_99555" data-name="Path 99555" d="M536.468,311.532h0l-13.3-.062a.1.1,0,1,1,0-.191h0l13.3.062a.1.1,0,0,1,0,.191Z" transform="translate(-522.952 -311.28)"/>
        <path id="Path_99556" data-name="Path 99556" d="M535.947,317.292h0l-9.442-.011a.1.1,0,0,1,0-.191h0l9.442.011a.1.1,0,0,1,0,.191Z" transform="translate(-524.421 -313.834)"/>
      </g>
      <path id="Path_99557" data-name="Path 99557" d="M568.978,307.245h0l-9.072-.073a.289.289,0,0,1,0-.577h0l8.786.073V293.746a.286.286,0,1,1,.572,0v13.213a.266.266,0,0,1-.084.2A.284.284,0,0,1,568.978,307.245Z" transform="translate(-531.361 -291.981)"/>
      <g id="Group_106349" data-name="Group 106349" transform="translate(35.745)">
        <rect id="Rectangle_55955" data-name="Rectangle 55955" width="3.166" height="2.953" transform="translate(3.452 3.244) rotate(180)" fill="#acd4f7"/>
        <path id="Path_99558" data-name="Path 99558" d="M576.432,294.35h-3.166a.287.287,0,0,1-.286-.286v-2.959a.287.287,0,0,1,.286-.286h3.166a.287.287,0,0,1,.286.286v2.959A.287.287,0,0,1,576.432,294.35Zm-2.88-.577h2.589v-2.382h-2.589Z" transform="translate(-572.98 -290.82)"/>
      </g>
    </g>
    <g id="Group_106357" data-name="Group 106357" transform="translate(136.457 67.402)">
      <g id="Group_106351" data-name="Group 106351" transform="translate(0.004 3.328)">
        <path id="Path_99559" data-name="Path 99559" d="M253.158,128.738c0-15.684.073-34.165.073-50.886-25.872,0-50.494-.2-72.93-.2.2,16.682.392,33.515.392,50.948,21.411,0,49.765.146,72.471.146Z" transform="translate(-180.014 -77.364)" fill="#fff"/>
        <path id="Path_99560" data-name="Path 99560" d="M252.933,128.8c-11.521,0-24.616-.039-37.281-.073s-24.644-.067-35.19-.067a.287.287,0,0,1-.286-.286c0-17.265-.2-34.143-.387-50.466v-.482a.262.262,0,0,1,.078-.207.288.288,0,0,1,.207-.084c10.82,0,22.022.045,33.879.1,12.614.05,25.659.106,39.051.106a.287.287,0,0,1,.286.286c0,8.5-.017,17.522-.034,26.253q-.025,13.054-.034,24.639a.287.287,0,0,1-.286.286Zm-72.185-.717c10.479,0,22.347.034,34.9.067s25.541.073,36.989.073q0-11.448.034-24.353c.017-8.629.034-17.55.034-25.961-13.3,0-26.241-.056-38.765-.106-11.751-.05-22.857-.1-33.588-.1V77.9c.191,16.234.387,33.016.387,50.18Z" transform="translate(-179.789 -77.14)"/>
      </g>
      <g id="Group_106352" data-name="Group 106352">
        <path id="Path_99561" data-name="Path 99561" d="M240.015,71.958q-15.768-.059-31.542-.224c-8.9-.078-19.2.106-28.1,0a47.944,47.944,0,0,0,0,5.85c22.868,0,49.76-.325,72.779,0,.129-1.519.034-3.67.034-5.553-3.872,0-9.308-.056-13.174-.067Z" transform="translate(-180.002 -71.427)" fill="#d1cef3"/>
        <path id="Path_99562" data-name="Path 99562" d="M252.93,77.639h0c-15.494-.219-32.7-.146-49.334-.073-8.209.034-15.965.073-23.44.073a.287.287,0,0,1-.286-.263,48.23,48.23,0,0,1,0-5.884.289.289,0,0,1,.286-.275h0c4.713.062,9.9.034,14.911.011,4.427-.022,9-.045,13.185-.006,9.733.084,20.767.185,31.537.224,1.58.006,3.418.017,5.307.034,2.74.017,5.576.039,7.862.039a.287.287,0,0,1,.286.286c0,.555.006,1.132.017,1.709.017,1.367.039,2.785-.056,3.866a.287.287,0,0,1-.286.263Zm-72.5-5.845a48.094,48.094,0,0,0-.006,5.267c7.391,0,15.057-.034,23.165-.073,16.542-.073,33.649-.146,49.076.067.067-1.02.05-2.3.034-3.547q-.008-.723-.017-1.429c-2.236,0-4.954-.022-7.582-.039-1.888-.011-3.726-.022-5.307-.028-10.77-.039-21.8-.14-31.542-.224-4.18-.039-8.753-.017-13.18.006-4.92.022-10,.05-14.642-.006Z" transform="translate(-179.783 -71.202)"/>
      </g>
      <g id="Group_106353" data-name="Group 106353" transform="translate(54.961 2.611)">
        <path id="Path_99563" data-name="Path 99563" d="M299.759,75.872a.662.662,0,0,0-.661.3.586.586,0,0,0-.028.583.613.613,0,0,0,1.149-.247.686.686,0,0,0-.46-.639Z" transform="translate(-287.159 -75.862)"/>
        <path id="Path_99564" data-name="Path 99564" d="M289.519,75.872a.662.662,0,0,0-.661.3.586.586,0,0,0-.028.583.613.613,0,0,0,1.149-.247.686.686,0,0,0-.46-.639Z" transform="translate(-282.657 -75.862)"/>
        <path id="Path_99565" data-name="Path 99565" d="M278.619,75.872a.662.662,0,0,0-.661.3.586.586,0,0,0-.028.583.613.613,0,0,0,1.149-.247.686.686,0,0,0-.46-.639Z" transform="translate(-277.865 -75.862)"/>
      </g>
      <path id="Path_99566" data-name="Path 99566" d="M223.7,104.286H198.326a.287.287,0,0,1-.286-.286V94.256a.287.287,0,0,1,.286-.286H223.7a.287.287,0,0,1,.286.286V104A.287.287,0,0,1,223.7,104.286Zm-25.087-.577h24.8V94.542h-24.8Z" transform="translate(-187.809 -81.212)"/>
      <path id="Path_99567" data-name="Path 99567" d="M211.476,131.127h-13.14a.287.287,0,0,1-.286-.286v-7.475a.287.287,0,0,1,.286-.286h13.14a.287.287,0,0,1,.286.286v7.475A.287.287,0,0,1,211.476,131.127Zm-12.855-.577H211.19v-6.9H198.622v6.9Z" transform="translate(-187.814 -94.01)"/>
      <path id="Path_99568" data-name="Path 99568" d="M248.836,131.127H235.7a.287.287,0,0,1-.286-.286v-7.475a.287.287,0,0,1,.286-.286h13.14a.287.287,0,0,1,.286.286v7.475A.287.287,0,0,1,248.836,131.127Zm-12.855-.577H248.55v-6.9H235.982Z" transform="translate(-204.239 -94.01)"/>
      <path id="Path_99569" data-name="Path 99569" d="M286.2,131.127h-13.14a.287.287,0,0,1-.286-.286v-7.475a.287.287,0,0,1,.286-.286H286.2a.287.287,0,0,1,.286.286v7.475A.287.287,0,0,1,286.2,131.127Zm-12.855-.577H285.91v-6.9H273.342Z" transform="translate(-220.664 -94.01)"/>
      <path id="Path_99570" data-name="Path 99570" d="M273.011,97.811h0l-15.186-.1a.1.1,0,1,1,0-.191h0l15.186.1a.1.1,0,1,1,0,.191Z" transform="translate(-214.052 -82.772)"/>
      <path id="Path_99571" data-name="Path 99571" d="M270.051,103.2h0l-12.216-.1a.1.1,0,1,1,0-.191h0l12.216.1a.1.1,0,1,1,0,.191Z" transform="translate(-214.056 -85.142)"/>
      <path id="Path_99572" data-name="Path 99572" d="M273.011,108.6h0l-15.186-.1a.1.1,0,1,1,0-.191h0l15.186.1a.1.1,0,1,1,0,.191Z" transform="translate(-214.052 -87.516)"/>
      <g id="Group_106354" data-name="Group 106354" transform="translate(11.671 41.572)">
        <path id="Path_99573" data-name="Path 99573" d="M211.346,145.681h0l-10.641-.1a.1.1,0,0,1,0-.191h0l10.641.1a.1.1,0,0,1,0,.191Z" transform="translate(-200.61 -145.39)"/>
        <path id="Path_99574" data-name="Path 99574" d="M211.128,151.071h0l-8.562-.1a.1.1,0,0,1-.1-.1.091.091,0,0,1,.1-.1l8.562.1a.1.1,0,1,1,0,.191Z" transform="translate(-201.428 -147.759)"/>
      </g>
      <g id="Group_106355" data-name="Group 106355" transform="translate(32.611 41.572)">
        <path id="Path_99575" data-name="Path 99575" d="M248.716,145.681h0l-10.641-.1a.1.1,0,0,1,0-.191h0l10.641.1a.1.1,0,1,1,0,.191Z" transform="translate(-237.98 -145.39)"/>
        <path id="Path_99576" data-name="Path 99576" d="M248.488,151.071h0l-8.562-.1a.1.1,0,0,1,0-.191h0l8.562.1a.1.1,0,0,1,0,.191Z" transform="translate(-238.793 -147.76)"/>
      </g>
      <g id="Group_106356" data-name="Group 106356" transform="translate(53.546 41.572)">
        <path id="Path_99577" data-name="Path 99577" d="M286.076,145.681h0l-10.641-.1a.1.1,0,0,1,0-.191h0l10.641.1a.1.1,0,1,1,0,.191Z" transform="translate(-275.34 -145.39)"/>
        <path id="Path_99578" data-name="Path 99578" d="M285.848,151.071h0l-8.562-.1a.1.1,0,0,1-.1-.1.091.091,0,0,1,.1-.1l8.562.1a.1.1,0,0,1,0,.191Z" transform="translate(-276.153 -147.759)"/>
      </g>
    </g>
    <g id="Group_106359" data-name="Group 106359" transform="translate(419.358 157.148)">
      <g id="Group_106358" data-name="Group 106358" transform="translate(0)">
        <path id="Path_99579" data-name="Path 99579" d="M696.165,231.87a11.214,11.214,0,0,1,10.361,8.041,11.37,11.37,0,0,1-4.746,12.294,11.155,11.155,0,0,1-13.028-1.132,11.442,11.442,0,0,1-2.634-12.933,11.6,11.6,0,0,1,10.042-6.27Z" transform="translate(-684.863 -231.584)" fill="#fff"/>
        <path id="Path_99580" data-name="Path 99580" d="M695.87,253.847a11.333,11.333,0,0,1-7.537-2.779,11.275,11.275,0,0,1,7.514-19.708h.09a11.534,11.534,0,0,1,10.636,8.248,11.7,11.7,0,0,1-4.87,12.614,10.965,10.965,0,0,1-5.839,1.619Zm-.017-21.91a10.7,10.7,0,0,0-7.133,18.7,10.887,10.887,0,0,0,12.681,1.1,11.109,11.109,0,0,0,4.623-11.975,10.947,10.947,0,0,0-10.086-7.828Z" transform="translate(-684.642 -231.36)"/>
      </g>
      <path id="Path_99581" data-name="Path 99581" d="M710.621,245.381a.748.748,0,0,1,.751.342.69.69,0,0,1,.034.667.708.708,0,0,1-.6.364.7.7,0,0,1-.706-.644.784.784,0,0,1,.527-.728Z" transform="translate(-695.834 -237.519)"/>
      <path id="Path_99582" data-name="Path 99582" d="M697.061,245.381a.748.748,0,0,1,.751.342.69.69,0,0,1,.034.667.715.715,0,0,1-.6.364.7.7,0,0,1-.706-.644.784.784,0,0,1,.527-.728Z" transform="translate(-689.873 -237.519)"/>
      <path id="Path_99583" data-name="Path 99583" d="M701.481,258.941a3.861,3.861,0,0,1-3.9-2.527.287.287,0,1,1,.555-.151,3.235,3.235,0,0,0,3.345,2.107,3.276,3.276,0,0,0,3.351-1.995.287.287,0,1,1,.538.2,4.086,4.086,0,0,1-3.889,2.37Z" transform="translate(-690.325 -242.215)"/>
    </g>
    <g id="Group_106365" data-name="Group 106365" transform="translate(184.254 110.459)">
      <g id="Group_106360" data-name="Group 106360">
        <path id="Path_99584" data-name="Path 99584" d="M326.93,148.56H275.652A10.039,10.039,0,0,0,265.61,158.6h0a10.039,10.039,0,0,0,10.042,10.042h39.382a9.1,9.1,0,0,0,4.068,5.878c1.059.644,2.247,1.065,3.284,1.743a6.384,6.384,0,0,1,2.634,3.166c.493,2.028,4.3,2.656,5.094,6.887.476-1.35.947-2.875.336-4.175-.387-.813-1.149-1.412-1.435-2.264-.426-1.278.353-2.74-.129-4-.409-1.07-1.575-1.619-2.348-2.46a5.357,5.357,0,0,1-1.233-3.76,8.732,8.732,0,0,1,.084-1.014h1.552A10.039,10.039,0,0,0,336.983,158.6h0a10.039,10.039,0,0,0-10.042-10.042Z" transform="translate(-265.313 -148.269)" fill="#fff"/>
        <path id="Path_99585" data-name="Path 99585" d="M329.874,186.38h-.022a.3.3,0,0,1-.263-.235,7.364,7.364,0,0,0-3.2-4.617,4.574,4.574,0,0,1-1.894-2.253,6.067,6.067,0,0,0-2.51-2.992,15.381,15.381,0,0,0-1.72-.925,17.117,17.117,0,0,1-1.552-.813,9.428,9.428,0,0,1-4.147-5.839H275.413a10.333,10.333,0,0,1,0-20.666h51.278a10.333,10.333,0,1,1,0,20.666H325.4c-.028.252-.045.493-.05.734a5.007,5.007,0,0,0,1.16,3.558,7.9,7.9,0,0,0,.88.784,4.456,4.456,0,0,1,1.53,1.771,4.533,4.533,0,0,1,.1,2.174,4.294,4.294,0,0,0,.034,1.838,4.149,4.149,0,0,0,.723,1.177,5.934,5.934,0,0,1,.7,1.053c.65,1.367.2,2.919-.319,4.393a.283.283,0,0,1-.269.191Zm-54.455-37.762a9.756,9.756,0,1,0,0,19.512H314.8a.287.287,0,0,1,.28.23,8.869,8.869,0,0,0,3.934,5.693,16.6,16.6,0,0,0,1.5.785,15.768,15.768,0,0,1,1.788.964,6.566,6.566,0,0,1,2.751,3.34c.174.723.88,1.289,1.692,1.939a8.445,8.445,0,0,1,3.155,3.99,4.24,4.24,0,0,0,.039-3.026,4.986,4.986,0,0,0-.633-.947,4.612,4.612,0,0,1-.813-1.345,4.705,4.705,0,0,1-.062-2.09,3.991,3.991,0,0,0-.062-1.9,3.933,3.933,0,0,0-1.356-1.53,8.854,8.854,0,0,1-.941-.841,5.62,5.62,0,0,1-1.311-3.962,8.773,8.773,0,0,1,.084-1.048.285.285,0,0,1,.286-.247h1.552a9.756,9.756,0,1,0,0-19.512H275.407Z" transform="translate(-265.08 -148.04)"/>
      </g>
      <g id="Group_106361" data-name="Group 106361" transform="translate(8.603 4.946)">
        <path id="Path_99586" data-name="Path 99586" d="M285.338,157.384c.42-.185,1.21,3.121,1.21,3.121s3.048-.241,3.306.252c.275.521-2.5,2.258-2.5,2.258s1.126,3.323.773,3.519c-.527.291-2.791-1.855-2.791-1.855s-2.4,2.04-2.791,1.855c-.2-.1.874-3.418.874-3.418s-2.634-1.67-2.477-2.107c.146-.409,3.183-.353,3.183-.353s.661-3.032,1.21-3.267Z" transform="translate(-280.655 -157.09)" fill="#d1cef3"/>
        <path id="Path_99587" data-name="Path 99587" d="M287.811,166.613c-.639,0-1.765-.9-2.7-1.776-2.365,1.989-2.757,1.8-2.9,1.732-.247-.118-.42-.2.656-3.558-2.634-1.692-2.466-2.152-2.4-2.325s.207-.583,3.222-.544c.275-1.2.768-3,1.328-3.244h0a.388.388,0,0,1,.325.011c.431.213.891,1.737,1.222,3.065,1.429-.1,3.071-.09,3.34.426.252.488-.555,1.334-2.41,2.51,1.121,3.345.762,3.541.566,3.648a.458.458,0,0,1-.235.056Zm-.017-.566Zm-2.673-1.883a.29.29,0,0,1,.2.078,9.527,9.527,0,0,0,2.376,1.788,17.077,17.077,0,0,0-.829-3.155.285.285,0,0,1,.118-.336,9.065,9.065,0,0,0,2.365-1.888,9.54,9.54,0,0,0-2.992-.09.291.291,0,0,1-.3-.219,14.842,14.842,0,0,0-.908-2.819,12.346,12.346,0,0,0-.953,2.964.284.284,0,0,1-.286.224,13.055,13.055,0,0,0-2.841.179,12.6,12.6,0,0,0,2.292,1.748.28.28,0,0,1,.118.331c-.364,1.126-.728,2.387-.846,2.964a17.367,17.367,0,0,0,2.3-1.7.289.289,0,0,1,.185-.067Zm-2.729,1.866Zm2.729-8.87Z" transform="translate(-280.432 -156.866)"/>
      </g>
      <g id="Group_106362" data-name="Group 106362" transform="translate(23.861 4.946)">
        <path id="Path_99588" data-name="Path 99588" d="M312.568,157.384c.42-.185,1.21,3.121,1.21,3.121s3.048-.241,3.306.252c.275.521-2.5,2.258-2.5,2.258s1.126,3.323.773,3.519c-.527.291-2.791-1.855-2.791-1.855s-2.4,2.04-2.791,1.855c-.2-.1.874-3.418.874-3.418s-2.634-1.67-2.477-2.107c.146-.409,3.183-.353,3.183-.353s.661-3.032,1.21-3.267Z" transform="translate(-307.885 -157.09)" fill="#d1cef3"/>
        <path id="Path_99589" data-name="Path 99589" d="M315.041,166.613c-.639,0-1.765-.9-2.7-1.776-2.365,1.989-2.757,1.8-2.9,1.732-.247-.118-.42-.2.656-3.558-2.634-1.692-2.466-2.152-2.4-2.325s.213-.583,3.222-.544c.275-1.2.768-3,1.328-3.244h0a.388.388,0,0,1,.325.011c.431.213.891,1.737,1.222,3.065,1.429-.1,3.071-.09,3.34.426.252.488-.555,1.334-2.41,2.51,1.121,3.345.762,3.541.566,3.648a.458.458,0,0,1-.235.056Zm-.017-.566Zm-2.673-1.883a.29.29,0,0,1,.2.078,9.527,9.527,0,0,0,2.376,1.788,17.077,17.077,0,0,0-.829-3.155.285.285,0,0,1,.118-.336,9.065,9.065,0,0,0,2.365-1.888,9.54,9.54,0,0,0-2.992-.09.291.291,0,0,1-.3-.219,14.842,14.842,0,0,0-.908-2.819,12.346,12.346,0,0,0-.953,2.964.284.284,0,0,1-.286.224,13.055,13.055,0,0,0-2.841.179,12.6,12.6,0,0,0,2.292,1.748.28.28,0,0,1,.118.331c-.364,1.126-.728,2.387-.846,2.964a17.367,17.367,0,0,0,2.3-1.7.289.289,0,0,1,.185-.067Zm-2.729,1.866Zm2.729-8.87Z" transform="translate(-307.662 -156.866)"/>
      </g>
      <g id="Group_106363" data-name="Group 106363" transform="translate(39.12 4.946)">
        <path id="Path_99590" data-name="Path 99590" d="M339.8,157.384c.42-.185,1.21,3.121,1.21,3.121s3.048-.241,3.306.252c.275.521-2.5,2.258-2.5,2.258s1.126,3.323.773,3.519c-.527.291-2.791-1.855-2.791-1.855s-2.4,2.04-2.791,1.855c-.2-.1.874-3.418.874-3.418s-2.634-1.67-2.477-2.107c.146-.409,3.183-.353,3.183-.353s.661-3.032,1.21-3.267Z" transform="translate(-335.115 -157.09)" fill="#d1cef3"/>
        <path id="Path_99591" data-name="Path 99591" d="M342.271,166.613c-.639,0-1.765-.9-2.7-1.776-2.365,1.989-2.757,1.8-2.9,1.732-.247-.118-.42-.2.656-3.558-2.634-1.692-2.466-2.152-2.4-2.325s.213-.583,3.222-.544c.275-1.2.768-3,1.328-3.244h0a.388.388,0,0,1,.325.011c.431.213.891,1.737,1.222,3.065,1.429-.1,3.071-.09,3.34.426.252.488-.555,1.334-2.41,2.51,1.121,3.345.762,3.541.566,3.648a.457.457,0,0,1-.235.056Zm-.017-.566Zm-2.673-1.883a.29.29,0,0,1,.2.078,9.527,9.527,0,0,0,2.376,1.788,17.076,17.076,0,0,0-.829-3.155.285.285,0,0,1,.118-.336,9.065,9.065,0,0,0,2.365-1.888,9.539,9.539,0,0,0-2.992-.09.291.291,0,0,1-.3-.219,14.838,14.838,0,0,0-.908-2.819,12.35,12.35,0,0,0-.953,2.964.284.284,0,0,1-.286.224,13.055,13.055,0,0,0-2.841.179,12.606,12.606,0,0,0,2.292,1.748.28.28,0,0,1,.118.331c-.364,1.126-.728,2.387-.846,2.964a17.369,17.369,0,0,0,2.3-1.7.289.289,0,0,1,.185-.067Zm-2.729,1.866Zm2.729-8.87Z" transform="translate(-334.892 -156.866)"/>
      </g>
      <g id="Group_106364" data-name="Group 106364" transform="translate(54.373 4.946)">
        <path id="Path_99592" data-name="Path 99592" d="M367.028,157.384c.42-.185,1.21,3.121,1.21,3.121s3.048-.241,3.306.252c.275.521-2.5,2.258-2.5,2.258s1.126,3.323.773,3.519c-.527.291-2.791-1.855-2.791-1.855s-2.4,2.04-2.791,1.855c-.2-.1.874-3.418.874-3.418s-2.634-1.67-2.477-2.107c.146-.409,3.183-.353,3.183-.353s.661-3.032,1.21-3.267Z" transform="translate(-362.339 -157.09)" fill="#d1cef3"/>
        <path id="Path_99593" data-name="Path 99593" d="M369.491,166.613c-.639,0-1.765-.9-2.7-1.776-2.365,1.989-2.757,1.8-2.9,1.732-.247-.118-.42-.2.656-3.558-2.634-1.692-2.466-2.152-2.4-2.325s.207-.583,3.222-.544c.275-1.2.768-3,1.328-3.244h0a.388.388,0,0,1,.325.011c.431.213.891,1.737,1.222,3.065,1.429-.1,3.071-.09,3.34.426.252.488-.555,1.334-2.41,2.51,1.121,3.345.762,3.541.566,3.648a.458.458,0,0,1-.235.056Zm-.017-.566Zm-2.673-1.883a.29.29,0,0,1,.2.078,9.527,9.527,0,0,0,2.376,1.788,17.072,17.072,0,0,0-.829-3.155.285.285,0,0,1,.118-.336,9.065,9.065,0,0,0,2.365-1.888,9.539,9.539,0,0,0-2.992-.09.291.291,0,0,1-.3-.219,14.84,14.84,0,0,0-.908-2.819,12.348,12.348,0,0,0-.953,2.964.284.284,0,0,1-.286.224,13.055,13.055,0,0,0-2.841.179,12.605,12.605,0,0,0,2.292,1.748.28.28,0,0,1,.118.331c-.364,1.126-.728,2.387-.846,2.964a17.365,17.365,0,0,0,2.3-1.7.289.289,0,0,1,.185-.067Zm-2.729,1.866Zm2.729-8.87Z" transform="translate(-362.112 -156.866)"/>
      </g>
    </g>
    <g id="Group_106366" data-name="Group 106366" transform="translate(259.248 201.924)">
      <path id="Path_99594" data-name="Path 99594" d="M403.818,311.784c.42-.185,1.21,3.121,1.21,3.121s3.048-.241,3.306.252c.275.521-2.5,2.258-2.5,2.258s1.126,3.323.773,3.519c-.527.291-2.791-1.855-2.791-1.855s-2.4,2.04-2.791,1.855c-.2-.1.874-3.418.874-3.418s-2.634-1.67-2.477-2.107c.146-.409,3.183-.353,3.183-.353s.661-3.032,1.21-3.267Z" transform="translate(-399.135 -311.49)" fill="#d1cef3"/>
      <path id="Path_99595" data-name="Path 99595" d="M406.291,321.013c-.639,0-1.765-.9-2.7-1.776-2.365,1.989-2.757,1.8-2.9,1.732-.247-.118-.42-.2.656-3.558-2.634-1.692-2.466-2.152-2.4-2.325s.213-.583,3.222-.544c.275-1.2.768-3,1.328-3.244a.388.388,0,0,1,.325.011c.431.213.891,1.737,1.222,3.065,1.429-.1,3.071-.09,3.34.426.252.488-.555,1.334-2.41,2.51,1.121,3.345.762,3.541.566,3.648a.458.458,0,0,1-.235.056Zm-.017-.566Zm-2.673-1.883a.29.29,0,0,1,.2.078,9.527,9.527,0,0,0,2.376,1.788,17.077,17.077,0,0,0-.829-3.155.285.285,0,0,1,.118-.336,9.064,9.064,0,0,0,2.365-1.888,9.711,9.711,0,0,0-2.992-.09.291.291,0,0,1-.3-.219,14.843,14.843,0,0,0-.908-2.819,12.346,12.346,0,0,0-.953,2.964.279.279,0,0,1-.286.224,13.053,13.053,0,0,0-2.841.179,12.4,12.4,0,0,0,2.292,1.748.28.28,0,0,1,.118.331c-.364,1.126-.728,2.387-.846,2.964a17.363,17.363,0,0,0,2.3-1.7.289.289,0,0,1,.185-.067Zm-2.729,1.866Zm7-5.346ZM403.6,311.56Z" transform="translate(-398.912 -311.266)"/>
    </g>
    <g id="Group_106367" data-name="Group 106367" transform="translate(274.506 201.924)">
      <path id="Path_99596" data-name="Path 99596" d="M431.048,311.784c.42-.185,1.21,3.121,1.21,3.121s3.048-.241,3.306.252c.275.521-2.5,2.258-2.5,2.258s1.126,3.323.773,3.519c-.527.291-2.791-1.855-2.791-1.855s-2.4,2.04-2.791,1.855c-.2-.1.874-3.418.874-3.418s-2.634-1.67-2.477-2.107c.146-.409,3.183-.353,3.183-.353s.661-3.032,1.21-3.267Z" transform="translate(-426.365 -311.49)" fill="#d1cef3"/>
      <path id="Path_99597" data-name="Path 99597" d="M433.521,321.013c-.639,0-1.765-.9-2.7-1.776-2.365,1.989-2.757,1.8-2.9,1.732-.247-.118-.42-.2.656-3.558-2.634-1.692-2.466-2.152-2.4-2.325s.207-.583,3.222-.544c.275-1.2.768-3,1.328-3.244a.388.388,0,0,1,.325.011c.431.213.891,1.737,1.222,3.065,1.429-.1,3.071-.09,3.34.426.252.488-.555,1.334-2.41,2.51,1.121,3.345.762,3.541.566,3.648a.458.458,0,0,1-.235.056Zm-.017-.566Zm-2.673-1.883a.29.29,0,0,1,.2.078,9.527,9.527,0,0,0,2.376,1.788,17.076,17.076,0,0,0-.829-3.155.285.285,0,0,1,.118-.336,9.064,9.064,0,0,0,2.365-1.888,9.711,9.711,0,0,0-2.992-.09.291.291,0,0,1-.3-.219,14.838,14.838,0,0,0-.908-2.819,12.349,12.349,0,0,0-.953,2.964.279.279,0,0,1-.286.224,13.053,13.053,0,0,0-2.841.179,12.4,12.4,0,0,0,2.292,1.748.28.28,0,0,1,.118.331c-.364,1.126-.728,2.387-.846,2.964a17.365,17.365,0,0,0,2.3-1.7.289.289,0,0,1,.185-.067ZM428.1,320.43Zm7-5.346Zm-4.276-3.525Z" transform="translate(-426.142 -311.266)"/>
    </g>
    <g id="Group_106368" data-name="Group 106368" transform="translate(289.765 201.924)">
      <path id="Path_99598" data-name="Path 99598" d="M458.278,311.784c.42-.185,1.21,3.121,1.21,3.121s3.048-.241,3.306.252c.275.521-2.5,2.258-2.5,2.258s1.126,3.323.773,3.519c-.527.291-2.791-1.855-2.791-1.855s-2.4,2.04-2.791,1.855c-.2-.1.874-3.418.874-3.418s-2.634-1.67-2.477-2.107c.146-.409,3.183-.353,3.183-.353s.661-3.032,1.21-3.267Z" transform="translate(-453.595 -311.49)" fill="#fff"/>
      <path id="Path_99599" data-name="Path 99599" d="M460.751,321.013c-.639,0-1.765-.9-2.7-1.776-2.365,1.989-2.757,1.8-2.9,1.732-.247-.118-.42-.2.656-3.558-2.634-1.692-2.466-2.152-2.4-2.325s.207-.583,3.222-.544c.275-1.2.768-3,1.328-3.244a.388.388,0,0,1,.325.011c.431.213.891,1.737,1.222,3.065,1.429-.1,3.071-.09,3.34.426.252.488-.555,1.334-2.41,2.51,1.121,3.345.762,3.541.566,3.648a.458.458,0,0,1-.235.056Zm-.017-.566Zm-2.673-1.883a.29.29,0,0,1,.2.078,9.527,9.527,0,0,0,2.376,1.788,17.074,17.074,0,0,0-.829-3.155.285.285,0,0,1,.118-.336,9.063,9.063,0,0,0,2.365-1.888,9.71,9.71,0,0,0-2.992-.09.291.291,0,0,1-.3-.219,14.84,14.84,0,0,0-.908-2.819,12.346,12.346,0,0,0-.953,2.964.279.279,0,0,1-.286.224,13.053,13.053,0,0,0-2.841.179,12.4,12.4,0,0,0,2.292,1.748.28.28,0,0,1,.118.331c-.364,1.126-.728,2.387-.846,2.964a17.361,17.361,0,0,0,2.3-1.7.289.289,0,0,1,.185-.067Zm-2.729,1.866Zm7-5.346Zm-4.276-3.525Z" transform="translate(-453.372 -311.266)"/>
    </g>
    <g id="Group_106374" data-name="Group 106374" transform="translate(337.383 68.433)">
      <g id="Group_106369" data-name="Group 106369" transform="translate(0 0)">
        <path id="Path_99600" data-name="Path 99600" d="M605.622,78.307v40.687a4.082,4.082,0,0,1-3.956,3.844H543.372c-3,0-4.522-2.97-4.522-4.83l.28-40.245a4.3,4.3,0,0,1,3.956-4.091l57.874-.123a4.867,4.867,0,0,1,4.662,4.757Z" transform="translate(-538.57 -73.264)" fill="#fff"/>
        <path id="Path_99601" data-name="Path 99601" d="M601.452,122.906H543.158c-3.093,0-4.808-3.026-4.808-5.122l.28-40.25a4.611,4.611,0,0,1,4.242-4.376l57.874-.118a5.13,5.13,0,0,1,4.948,5.043v40.687A4.359,4.359,0,0,1,601.452,122.906Zm-.706-49.289-57.874.118a4,4,0,0,0-3.665,3.8l-.28,40.25c0,1.855,1.507,4.539,4.231,4.539h58.294a3.807,3.807,0,0,0,3.665-3.558V78.078a4.6,4.6,0,0,0-4.371-4.466Z" transform="translate(-538.35 -73.04)"/>
      </g>
      <path id="Path_99602" data-name="Path 99602" d="M538.966,85.641a.287.287,0,0,1-.286-.286.3.3,0,0,1,.286-.291l66.582-.224h0a.287.287,0,0,1,.286.286.3.3,0,0,1-.286.291l-66.582.224Z" transform="translate(-538.495 -78.228)"/>
      <path id="Path_99603" data-name="Path 99603" d="M603.446,107.891H567.975a.1.1,0,1,1,0-.191h35.471a.1.1,0,1,1,0,.191Z" transform="translate(-551.333 -88.278)"/>
      <path id="Path_99604" data-name="Path 99604" d="M601.982,115.051H580.055a.1.1,0,1,1,0-.191h21.927a.1.1,0,0,1,0,.191Z" transform="translate(-556.644 -91.426)"/>
      <path id="Path_99605" data-name="Path 99605" d="M601.982,100.731H580.055a.1.1,0,1,1,0-.191h21.927a.1.1,0,0,1,0,.191Z" transform="translate(-556.644 -85.13)"/>
      <g id="Group_106370" data-name="Group 106370" transform="translate(47.906 3.121)">
        <path id="Path_99606" data-name="Path 99606" d="M647.619,78.621a.709.709,0,0,0-.717.325.654.654,0,0,0-.034.633.677.677,0,0,0,.572.347.664.664,0,0,0,.672-.611.747.747,0,0,0-.5-.695Z" transform="translate(-633.936 -78.609)"/>
        <path id="Path_99607" data-name="Path 99607" d="M636.5,78.621a.709.709,0,0,0-.717.325.654.654,0,0,0-.034.633.684.684,0,0,0,.572.347.664.664,0,0,0,.672-.611.747.747,0,0,0-.5-.695Z" transform="translate(-629.047 -78.609)"/>
        <path id="Path_99608" data-name="Path 99608" d="M624.659,78.621a.709.709,0,0,0-.717.325.654.654,0,0,0-.034.633.684.684,0,0,0,.572.347.664.664,0,0,0,.672-.611.747.747,0,0,0-.5-.695Z" transform="translate(-623.842 -78.609)"/>
      </g>
      <g id="Group_106371" data-name="Group 106371" transform="translate(13.663 32.134)">
        <path id="Path_99609" data-name="Path 99609" d="M567.638,130.894c.42-.185,1.21,3.121,1.21,3.121s3.048-.241,3.306.252c.275.521-2.5,2.258-2.5,2.258s1.126,3.323.773,3.519c-.527.291-2.791-1.855-2.791-1.855s-2.4,2.04-2.791,1.855c-.2-.1.874-3.418.874-3.418s-2.634-1.67-2.477-2.107c.146-.409,3.183-.353,3.183-.353s.661-3.032,1.21-3.267Z" transform="translate(-562.955 -130.606)" fill="#fff"/>
        <path id="Path_99610" data-name="Path 99610" d="M570.111,140.133c-.639,0-1.765-.9-2.7-1.776-2.365,1.989-2.751,1.8-2.9,1.731-.247-.118-.42-.2.656-3.558-2.634-1.692-2.466-2.152-2.4-2.325s.207-.583,3.222-.544c.275-1.2.768-3,1.328-3.244h0a.388.388,0,0,1,.325.011c.431.213.891,1.737,1.222,3.065,1.429-.1,3.071-.09,3.334.426.252.488-.555,1.334-2.41,2.51,1.121,3.345.762,3.541.566,3.648a.458.458,0,0,1-.235.056Zm-.017-.566Zm-2.673-1.883a.29.29,0,0,1,.2.078,9.524,9.524,0,0,0,2.376,1.788,17.08,17.08,0,0,0-.829-3.155.285.285,0,0,1,.118-.336,9.063,9.063,0,0,0,2.365-1.888,9.54,9.54,0,0,0-2.992-.09.291.291,0,0,1-.3-.219,14.845,14.845,0,0,0-.908-2.819,12.346,12.346,0,0,0-.953,2.964.282.282,0,0,1-.28.224h0a13.055,13.055,0,0,0-2.841.179,12.6,12.6,0,0,0,2.292,1.748.28.28,0,0,1,.118.331c-.364,1.126-.728,2.387-.846,2.964a17.367,17.367,0,0,0,2.3-1.7.289.289,0,0,1,.185-.067Zm-2.729,1.866Zm7-5.346Z" transform="translate(-562.732 -130.386)"/>
      </g>
      <g id="Group_106372" data-name="Group 106372" transform="translate(28.916 32.128)">
        <path id="Path_99611" data-name="Path 99611" d="M594.868,130.894c.42-.185,1.21,3.121,1.21,3.121s3.048-.241,3.306.252c.275.521-2.5,2.258-2.5,2.258s1.126,3.323.773,3.519c-.527.291-2.791-1.855-2.791-1.855s-2.4,2.04-2.791,1.855c-.2-.1.874-3.418.874-3.418s-2.634-1.67-2.477-2.107c.146-.409,3.183-.353,3.183-.353s.661-3.032,1.21-3.267Z" transform="translate(-590.179 -130.6)" fill="#d1cef3"/>
        <path id="Path_99612" data-name="Path 99612" d="M597.331,140.128c-.639,0-1.765-.9-2.7-1.776-2.365,1.989-2.757,1.8-2.9,1.731-.247-.118-.42-.2.656-3.558-2.634-1.692-2.466-2.152-2.4-2.331.056-.163.219-.577,3.222-.544.275-1.2.768-3,1.328-3.244h0a.388.388,0,0,1,.325.011c.432.213.891,1.737,1.222,3.065,1.429-.1,3.071-.09,3.34.426.252.488-.555,1.334-2.409,2.51,1.121,3.345.762,3.541.566,3.648a.458.458,0,0,1-.235.056Zm-.017-.566Zm-2.673-1.883a.28.28,0,0,1,.2.078,9.527,9.527,0,0,0,2.376,1.788,17.073,17.073,0,0,0-.829-3.155.285.285,0,0,1,.118-.336,9.064,9.064,0,0,0,2.365-1.888,9.722,9.722,0,0,0-2.992-.09.287.287,0,0,1-.3-.219,14.837,14.837,0,0,0-.908-2.819,12.35,12.35,0,0,0-.953,2.964.282.282,0,0,1-.28.224h0a13.055,13.055,0,0,0-2.841.179,12.405,12.405,0,0,0,2.292,1.748.28.28,0,0,1,.118.331c-.364,1.126-.728,2.387-.846,2.964a17.367,17.367,0,0,0,2.3-1.7A.289.289,0,0,1,594.641,137.68Z" transform="translate(-589.952 -130.376)"/>
      </g>
      <g id="Group_106373" data-name="Group 106373" transform="translate(44.174 32.134)">
        <path id="Path_99613" data-name="Path 99613" d="M622.1,130.894c.42-.185,1.21,3.121,1.21,3.121s3.048-.241,3.306.252c.275.521-2.5,2.258-2.5,2.258s1.126,3.323.773,3.519c-.527.291-2.791-1.855-2.791-1.855s-2.4,2.04-2.791,1.855c-.2-.1.874-3.418.874-3.418s-2.634-1.67-2.477-2.107c.146-.409,3.183-.353,3.183-.353s.661-3.032,1.21-3.267Z" transform="translate(-617.409 -130.606)" fill="#d1cef3"/>
        <path id="Path_99614" data-name="Path 99614" d="M624.561,140.133c-.639,0-1.765-.9-2.7-1.776-2.365,1.989-2.757,1.8-2.9,1.731-.247-.118-.42-.2.656-3.558-2.634-1.692-2.466-2.152-2.4-2.325s.207-.583,3.222-.544c.275-1.2.768-3,1.328-3.244h0a.388.388,0,0,1,.325.011c.432.213.891,1.737,1.222,3.065,1.429-.1,3.071-.09,3.334.426.252.488-.555,1.334-2.41,2.51,1.121,3.345.762,3.541.566,3.648a.458.458,0,0,1-.235.056Zm-.017-.566Zm-2.673-1.883a.29.29,0,0,1,.2.078,9.527,9.527,0,0,0,2.376,1.788,17.083,17.083,0,0,0-.829-3.155.285.285,0,0,1,.118-.336,9.065,9.065,0,0,0,2.365-1.888,9.54,9.54,0,0,0-2.992-.09.287.287,0,0,1-.3-.219,14.842,14.842,0,0,0-.908-2.819,12.346,12.346,0,0,0-.953,2.964.282.282,0,0,1-.28.224h0a13.055,13.055,0,0,0-2.841.179,12.606,12.606,0,0,0,2.292,1.748.28.28,0,0,1,.118.331c-.364,1.126-.728,2.387-.846,2.964a17.367,17.367,0,0,0,2.3-1.7.289.289,0,0,1,.185-.067Zm-2.729,1.866Zm7-5.346Z" transform="translate(-617.182 -130.386)"/>
      </g>
    </g>
    <g id="Group_106378" data-name="Group 106378" transform="translate(111.951 175.87)">
      <g id="Group_106375" data-name="Group 106375" transform="translate(0 0.207)">
        <path id="Path_99615" data-name="Path 99615" d="M147.281,265.65a11.214,11.214,0,0,0-10.361,8.041,11.37,11.37,0,0,0,4.746,12.294,11.146,11.146,0,0,0,13.028-1.132,11.442,11.442,0,0,0,2.634-12.933,11.6,11.6,0,0,0-10.042-6.27Z" transform="translate(-136.27 -265.363)" fill="#fff"/>
        <path id="Path_99616" data-name="Path 99616" d="M147.134,287.621A11.029,11.029,0,0,1,141.295,286a11.7,11.7,0,0,1-4.87-12.614,11.534,11.534,0,0,1,10.636-8.248h0a11.275,11.275,0,0,1,7.61,19.708,11.323,11.323,0,0,1-7.537,2.779Zm-.067-21.91a10.939,10.939,0,0,0-10.086,7.828,11.113,11.113,0,0,0,4.623,11.975,10.9,10.9,0,0,0,12.681-1.1,10.7,10.7,0,0,0-7.217-18.7h0Zm0-.286Z" transform="translate(-136.049 -265.139)"/>
      </g>
      <path id="Path_99617" data-name="Path 99617" d="M148.8,279.151a.748.748,0,0,0-.751.342.69.69,0,0,0-.034.667.708.708,0,0,0,.6.364.7.7,0,0,0,.706-.644.784.784,0,0,0-.527-.728Z" transform="translate(-141.279 -271.088)"/>
      <path id="Path_99618" data-name="Path 99618" d="M162.369,279.151a.748.748,0,0,0-.751.342.69.69,0,0,0-.034.667.715.715,0,0,0,.6.364.7.7,0,0,0,.706-.644.784.784,0,0,0-.527-.728Z" transform="translate(-147.245 -271.088)"/>
      <path id="Path_99619" data-name="Path 99619" d="M152.894,292.721a4.069,4.069,0,0,1-3.889-2.37.287.287,0,1,1,.538-.2,3.449,3.449,0,0,0,3.351,1.995,3.242,3.242,0,0,0,3.345-2.107.285.285,0,0,1,.353-.2.293.293,0,0,1,.2.353A3.847,3.847,0,0,1,152.894,292.721Z" transform="translate(-141.737 -275.787)"/>
      <g id="Group_106377" data-name="Group 106377" transform="translate(26.656)">
        <g id="Group_106376" data-name="Group 106376">
          <path id="Path_99620" data-name="Path 99620" d="M194.851,265.27a11.214,11.214,0,0,0-10.361,8.041,11.37,11.37,0,0,0,4.746,12.294,11.155,11.155,0,0,0,13.028-1.132A11.442,11.442,0,0,0,204.9,271.54a11.6,11.6,0,0,0-10.042-6.27Z" transform="translate(-183.84 -264.989)" fill="#fff"/>
          <path id="Path_99621" data-name="Path 99621" d="M194.7,287.252a11.029,11.029,0,0,1-5.839-1.619A11.7,11.7,0,0,1,184,273.018a11.534,11.534,0,0,1,10.636-8.248h.09a11.275,11.275,0,0,1,7.514,19.708,11.323,11.323,0,0,1-7.537,2.779Zm-.067-21.91h0a10.947,10.947,0,0,0-10.086,7.828,11.113,11.113,0,0,0,4.623,11.975,10.9,10.9,0,0,0,12.681-1.1,10.7,10.7,0,0,0-7.133-18.7h-.084Z" transform="translate(-183.619 -264.77)"/>
        </g>
        <path id="Path_99622" data-name="Path 99622" d="M196.369,278.781a.748.748,0,0,0-.751.342.69.69,0,0,0-.034.667.715.715,0,0,0,.6.364.7.7,0,0,0,.706-.644.784.784,0,0,0-.527-.728Z" transform="translate(-188.849 -270.925)"/>
        <path id="Path_99623" data-name="Path 99623" d="M209.939,278.781a.748.748,0,0,0-.751.342.69.69,0,0,0-.034.667.708.708,0,0,0,.6.364.7.7,0,0,0,.706-.644.784.784,0,0,0-.527-.728Z" transform="translate(-194.815 -270.925)"/>
        <path id="Path_99624" data-name="Path 99624" d="M196.844,292.237a.243.243,0,0,1-.106-.022.292.292,0,0,1-.162-.375,4.189,4.189,0,0,1,3.878-2.393,3.9,3.9,0,0,1,3.9,2.264.287.287,0,0,1-.538.2,3.259,3.259,0,0,0-3.34-1.888,3.661,3.661,0,0,0-3.362,2.028A.291.291,0,0,1,196.844,292.237Z" transform="translate(-189.307 -275.617)"/>
      </g>
    </g>
    <g id="Group_106382" data-name="Group 106382" transform="translate(81.236 121.353)">
      <g id="Group_106380" data-name="Group 106380">
        <g id="Group_106379" data-name="Group 106379">
          <path id="Path_99625" data-name="Path 99625" d="M91.775,208.739c1.037.017,2.068.034,3.1.056q3.917.084,7.834.2c.308.011.616.017.93.028-.219-3.934-.168-10.787,1.037-11.958,2.292-2.225,1.86-13.208.88-15.006a1.779,1.779,0,0,0-3.026.482,2.68,2.68,0,0,0-1.816-2.466,1.586,1.586,0,0,0-1.647.8c-.4-.773-.891-1.653-1.715-1.782a2.4,2.4,0,0,0-2.18,1.306c-.112-10.2.039-12.378-1.687-12.4C90.6,167.945,91.517,176.5,91,186.762a8.936,8.936,0,0,1-.3,1.737c-.308-.392-.981-2.286-5.458-4.3-1.3-.588-3.906-.179-3.435.538.93,1.412,1.748,1.765,3.043,3.026,2.393,2.331,4.147,8.372,5.234,9.436,3.642,3.088,2.04,7.862,1.7,11.555Z" transform="translate(-81.462 -167.704)" fill="#fff"/>
          <path id="Path_99626" data-name="Path 99626" d="M103.417,209.081h-.006l-.93-.028c-2.8-.078-5.363-.146-7.834-.2l-2.69-.05h-.409a.318.318,0,0,1-.207-.1.289.289,0,0,1-.073-.219c.062-.678.163-1.384.275-2.124.459-3.166.986-6.758-1.872-9.184,0,0-.011-.011-.017-.011a13.184,13.184,0,0,1-1.7-3.228c-.958-2.163-2.146-4.853-3.536-6.2-.437-.426-.813-.74-1.177-1.042a8.471,8.471,0,0,1-1.905-2.028.565.565,0,0,1,.039-.7c.527-.616,2.634-.762,3.754-.258,3.407,1.535,4.673,3.032,5.223,3.844.062-.381.123-.829.129-1.025.14-2.718.174-5.346.207-7.666a69.572,69.572,0,0,1,.381-8.041c.213-1.435.672-3.34,2.169-3.34h.028c1.132.017,1.485.88,1.67,2.169a75.67,75.67,0,0,1,.275,7.94c0,.555.011,1.143.017,1.76a2.376,2.376,0,0,1,1.944-.768,2.711,2.711,0,0,1,1.726,1.558,1.713,1.713,0,0,1,1.647-.572,2.894,2.894,0,0,1,1.911,1.928,2.149,2.149,0,0,1,1.227-.572,1.806,1.806,0,0,1,1.905.779c1.025,1.877,1.513,12.983-.93,15.354-.953.925-1.227,6.691-.947,11.734a.319.319,0,0,1-.078.219.293.293,0,0,1-.207.09Zm-11.549-.852h.1l2.7.05c2.471.056,5.032.118,7.834.2l.616.017c-.078-1.76-.387-10.389,1.138-11.863,2.213-2.146,1.709-13.045.824-14.665a1.294,1.294,0,0,0-1.317-.482,1.332,1.332,0,0,0-1.177.891.3.3,0,0,1-.308.224.285.285,0,0,1-.258-.28,2.41,2.41,0,0,0-1.58-2.191c-.532-.1-.9.084-1.367.689a.3.3,0,0,1-.252.112.3.3,0,0,1-.23-.151c-.415-.8-.846-1.524-1.5-1.631a2.142,2.142,0,0,0-1.883,1.16.288.288,0,0,1-.538-.14c-.011-.925-.017-1.782-.028-2.578-.073-7.856-.129-9.52-1.378-9.537-.51-.017-1.233.28-1.614,2.847a68.172,68.172,0,0,0-.375,7.968c-.034,2.325-.073,4.959-.213,7.688a8.265,8.265,0,0,1-.331,1.855.288.288,0,0,1-.23.151.283.283,0,0,1-.252-.112,2.43,2.43,0,0,1-.157-.247c-.37-.616-1.362-2.247-5.189-3.973a3.868,3.868,0,0,0-3.082.106v.006a7.972,7.972,0,0,0,1.8,1.905c.353.3.751.633,1.2,1.07,1.468,1.429,2.684,4.18,3.659,6.382a14.3,14.3,0,0,0,1.569,3.043c3.093,2.628,2.544,6.382,2.062,9.7-.09.622-.179,1.216-.235,1.788ZM81.8,184.324Z" transform="translate(-81.236 -167.48)"/>
        </g>
        <path id="Path_99627" data-name="Path 99627" d="M105.441,192a.283.283,0,0,1-.286-.286l-.045-2.622a.288.288,0,0,1,.286-.291.292.292,0,0,1,.291.286l.045,2.622a.288.288,0,0,1-.286.291h0Z" transform="translate(-91.732 -176.853)"/>
        <path id="Path_99628" data-name="Path 99628" d="M112.338,192.324H112.3a.286.286,0,0,1-.247-.325,4.263,4.263,0,0,0-.157-1.659.289.289,0,0,1,.538-.213,4.632,4.632,0,0,1,.191,1.944.285.285,0,0,1-.286.252Z" transform="translate(-94.707 -177.357)"/>
      </g>
      <g id="Group_106381" data-name="Group 106381" transform="translate(8.167 34.561)">
        <path id="Path_99629" data-name="Path 99629" d="M111.4,230.665c-.045,2.824.078,4.376-.078,6.8a.817.817,0,0,1-.174.549.834.834,0,0,1-.628.157q-6.716-.151-13.432-.3a.618.618,0,0,1-.768-.74c0-2.331.011-4.662.106-6.915.163-.476.8-.549,1.294-.538q6.506.134,13.017.263a.767.767,0,0,1,.656.723Z" transform="translate(-96.034 -229.386)" fill="#d1cef3"/>
        <path id="Path_99630" data-name="Path 99630" d="M110.4,238.225h-.106l-13.432-.3a1.073,1.073,0,0,1-.852-.3,1.085,1.085,0,0,1-.2-.728c0-2.3.011-4.668.106-6.926a.225.225,0,0,1,.017-.084c.174-.5.706-.751,1.575-.728l13.017.263a1.051,1.051,0,0,1,.941,1.014h0c-.017,1.065-.011,1.933,0,2.768.011,1.356.022,2.527-.078,4.046a1.089,1.089,0,0,1-.258.734.988.988,0,0,1-.728.241Zm-13.9-8.181c-.09,2.23-.1,4.584-.1,6.853a.665.665,0,0,0,.062.359c.073.09.3.1.42.1l13.432.3c.162,0,.342,0,.415-.073a.632.632,0,0,0,.09-.364c.1-1.5.084-2.656.078-4-.006-.841-.011-1.709,0-2.785a.5.5,0,0,0-.375-.431L97.5,229.73c-.392-.011-.874.039-1,.308Zm14.681.387Z" transform="translate(-95.81 -229.158)"/>
      </g>
      <path id="Path_99631" data-name="Path 99631" d="M103.077,241.1h0l-3.732-.039a.1.1,0,1,1,0-.191h0l3.732.039a.1.1,0,1,1,0,.191Z" transform="translate(-89.156 -199.745)"/>
      <path id="Path_99632" data-name="Path 99632" d="M100.957,238.712h0l-1.451-.022a.1.1,0,0,1-.1-.1c0-.05.045-.106.1-.1l1.451.022a.1.1,0,1,1,0,.191Z" transform="translate(-89.226 -198.702)"/>
    </g>
    <g id="Group_106384" data-name="Group 106384" transform="translate(397.581 94.76)">
      <g id="Group_106383" data-name="Group 106383">
        <path id="Path_99633" data-name="Path 99633" d="M670.51,139.851c.768-2.858-4.1-11.661-5.665-12.72a1.651,1.651,0,0,0-2.286,1.687,2.478,2.478,0,0,0-2.544-1.255,1.474,1.474,0,0,0-1.02,1.356c-.661-.465-1.44-.981-2.169-.74a2.227,2.227,0,0,0-1.238,2c-4.292-7.907-5.234-10.2-6.668-9.487-2.4,1.194,2.449,8.607,5.94,16.508a8.242,8.242,0,0,1,.493,1.558c-.42-.2-1.782-1.463-6.321-1.216-1.322.073-3.289,1.513-2.594,1.905,1.362.768,2.191.712,3.788,1.194,2.964.9,6.976,5.127,8.321,5.536,1.922,1.126,9.929,1.255,11.964-6.315Z" transform="translate(-646.005 -120.263)" fill="#fff"/>
        <path id="Path_99634" data-name="Path 99634" d="M661.212,146.784a6.549,6.549,0,0,1-3.009-.594,12.566,12.566,0,0,1-2.746-1.928c-1.7-1.373-3.827-3.076-5.542-3.6-.538-.162-.981-.263-1.406-.359a7.8,7.8,0,0,1-2.437-.863.536.536,0,0,1-.275-.616c.174-.74,1.855-1.765,3-1.827,3.4-.185,5.077.476,5.895.913-.106-.319-.241-.684-.314-.852-.969-2.2-2.023-4.3-3.037-6.349-2.757-5.542-4.752-9.543-2.763-10.535.953-.476,1.642.224,2.241,1.048a59.365,59.365,0,0,1,3.2,5.587c.375.695.779,1.451,1.227,2.275a2.208,2.208,0,0,1,1.272-1.435,2.479,2.479,0,0,1,2.079.538,1.589,1.589,0,0,1,1.115-1.154,2.7,2.7,0,0,1,2.393.751,2.07,2.07,0,0,1,.762-.975,1.7,1.7,0,0,1,1.922-.174c1.563,1.053,6.618,9.93,5.783,13.034l-.28-.073.28.073a9.024,9.024,0,0,1-5.385,6.321,10.531,10.531,0,0,1-3.967.779Zm-14.861-7.834a7.453,7.453,0,0,0,2.275.8c.415.1.891.2,1.451.37,1.821.555,4,2.3,5.738,3.7a12.7,12.7,0,0,0,2.589,1.832.207.207,0,0,1,.062.028c1.037.605,3.866.874,6.495-.2a8.493,8.493,0,0,0,5.049-5.94c.712-2.65-3.99-11.353-5.548-12.412a1.18,1.18,0,0,0-1.266.163,1.2,1.2,0,0,0-.577,1.21.29.29,0,0,1-.174.342.283.283,0,0,1-.359-.129,2.214,2.214,0,0,0-2.208-1.121c-.471.14-.689.448-.818,1.132a.282.282,0,0,1-.174.213.27.27,0,0,1-.275-.034c-.678-.476-1.334-.891-1.916-.7a1.964,1.964,0,0,0-1.042,1.737.28.28,0,0,1-.224.269.286.286,0,0,1-.319-.146c-.594-1.1-1.126-2.09-1.608-2.975-2.931-5.452-3.738-6.864-4.679-6.394-1.474.734.611,4.92,3.02,9.761,1.02,2.051,2.073,4.169,3.048,6.371a7.877,7.877,0,0,1,.516,1.675.287.287,0,0,1-.409.258q-.1-.05-.235-.134c-.566-.347-2.073-1.266-5.951-1.053a3.644,3.644,0,0,0-2.466,1.367Z" transform="translate(-645.779 -120.024)"/>
      </g>
      <path id="Path_99635" data-name="Path 99635" d="M663.415,139.288a.288.288,0,0,1-.252-.151L662.014,137a.29.29,0,1,1,.51-.275l1.149,2.141a.294.294,0,0,1-.118.392.3.3,0,0,1-.134.034Z" transform="translate(-652.902 -127.299)"/>
      <path id="Path_99636" data-name="Path 99636" d="M669.222,136.623a.283.283,0,0,1-.269-.191,3.882,3.882,0,0,0-.829-1.289.29.29,0,1,1,.381-.437,4.444,4.444,0,0,1,.992,1.524.287.287,0,0,1-.174.37.317.317,0,0,1-.1.017Z" transform="translate(-655.561 -126.449)"/>
    </g>
    <g id="Group_106391" data-name="Group 106391" transform="translate(430.228 106.199)">
      <g id="Group_106389" data-name="Group 106389">
        <g id="Group_106388" data-name="Group 106388">
          <g id="Group_106385" data-name="Group 106385" transform="translate(0.165)">
            <path id="Path_99637" data-name="Path 99637" d="M704.858,157.579a4.541,4.541,0,0,1,1.4-2.617c3.827-4.354,8.54-8.164,12.855-12.036a6.424,6.424,0,0,1,4.051-1.967c1.014.028,2.746,1.3,3.463,2.017,1.138,1.138,8,7.789,11.84,11.633a5.049,5.049,0,0,1,1.788,3.435c-2.847,5.138-5.279,9.761-9.655,13.678a9.945,9.945,0,0,1-3.726,2.3,9.708,9.708,0,0,1-3.642.2,18.9,18.9,0,0,1-7.481-2.253c-5.329-3.026-11.151-8.276-10.888-14.384Z" transform="translate(-704.563 -140.666)" fill="#fff"/>
            <path id="Path_99638" data-name="Path 99638" d="M724.471,174.363c-.538,0-1.053-.039-1.5-.084a19.054,19.054,0,0,1-7.593-2.292c-2.673-1.519-11.358-7.055-11.033-14.648h0a4.79,4.79,0,0,1,1.474-2.8,104.68,104.68,0,0,1,9.739-9.3c1.037-.908,2.107-1.844,3.132-2.768,1.547-1.39,2.975-2.079,4.253-2.04,1.126.034,2.936,1.384,3.654,2.1.4.4,1.519,1.5,2.942,2.88,2.7,2.639,6.4,6.259,8.9,8.747,1.524,1.524,1.956,3.037,1.866,3.676a.239.239,0,0,1-.034.1l-.443.8c-2.617,4.735-5.088,9.207-9.274,12.955a10.278,10.278,0,0,1-3.838,2.365,8.1,8.1,0,0,1-2.253.286Zm-19.551-17c-.314,7.262,8.142,12.647,10.742,14.121a18.505,18.505,0,0,0,7.363,2.219,9.516,9.516,0,0,0,3.536-.185,9.7,9.7,0,0,0,3.614-2.236c4.107-3.682,6.444-7.907,9.151-12.8l.415-.751a4.99,4.99,0,0,0-1.709-3.144c-2.488-2.488-6.192-6.1-8.893-8.742-1.423-1.39-2.544-2.488-2.947-2.886a7.04,7.04,0,0,0-3.267-1.933c-1.126-.034-2.415.605-3.85,1.894-1.031.925-2.1,1.86-3.138,2.768a102.885,102.885,0,0,0-9.689,9.24,4.258,4.258,0,0,0-1.334,2.438h0Z" transform="translate(-704.334 -140.437)"/>
          </g>
          <g id="Group_106386" data-name="Group 106386" transform="translate(4.466 4.563)">
            <rect id="Rectangle_55956" data-name="Rectangle 55956" width="26.813" height="33.767" transform="translate(0.28 0.286)" fill="#fff"/>
            <path id="Path_99639" data-name="Path 99639" d="M739.109,182.919H712.3a.287.287,0,0,1-.286-.286V148.866a.287.287,0,0,1,.286-.286h26.813a.287.287,0,0,1,.286.286v33.767A.287.287,0,0,1,739.109,182.919Zm-26.527-.577h26.236v-33.19H712.582Z" transform="translate(-712.01 -148.58)"/>
          </g>
          <g id="Group_106387" data-name="Group 106387" transform="translate(0 16.449)">
            <path id="Path_99640" data-name="Path 99640" d="M727.363,182.414c-1.631,1.289-3.7,2.617-5.7,1.961a6.2,6.2,0,0,1-1.636-.919,146.331,146.331,0,0,1-15.343-13.146c-.045.807-.146,21.333-.146,21.333a2.47,2.47,0,0,0,2.415,2.387H738.1a2.108,2.108,0,0,0,2.113-1.9s.118-20.817-.1-21.181c0,.011-8.3,7.946-12.748,11.465Z" transform="translate(-704.26 -170.02)" fill="#fff"/>
            <path id="Path_99641" data-name="Path 99641" d="M737.885,194.088H706.741a2.764,2.764,0,0,1-2.7-2.673c0-.841.1-20.537.146-21.35a.293.293,0,0,1,.213-.263.282.282,0,0,1,.286.084,145.247,145.247,0,0,0,15.292,13.1,5.82,5.82,0,0,0,1.563.88c1.883.616,3.894-.7,5.43-1.916h0c4.376-3.457,12.569-11.291,12.72-11.437a.27.27,0,0,1,.157-.084.287.287,0,0,1,.3.134c.073.123.179.3.174,10.877,0,5.189-.034,10.406-.034,10.456a2.388,2.388,0,0,1-2.4,2.185Zm-33.139-23.339c-.05,3.6-.129,20.481-.129,20.666a2.186,2.186,0,0,0,2.124,2.1h31.145a1.819,1.819,0,0,0,1.827-1.608c.039-7.307.056-18.01-.045-20.559l-.936.885c-.762.717-1.961,1.844-3.34,3.121-2.4,2.213-5.749,5.234-8.058,7.06h0c-1.647,1.306-3.822,2.712-5.962,2.012a6.764,6.764,0,0,1-1.715-.958,144.5,144.5,0,0,1-14.9-12.714Zm22.4,11.437Zm12.479-11.375Zm-35.157-.723Z" transform="translate(-704.04 -169.793)"/>
          </g>
        </g>
        <path id="Path_99642" data-name="Path 99642" d="M737.665,181.661H725a.1.1,0,0,1,0-.191h12.67a.1.1,0,1,1,0,.191Z" transform="translate(-713.211 -158.477)"/>
        <path id="Path_99643" data-name="Path 99643" d="M737.891,186.941h-7.666a.1.1,0,0,1,0-.191h7.666a.1.1,0,1,1,0,.191Z" transform="translate(-715.51 -160.798)"/>
      </g>
      <g id="Group_106390" data-name="Group 106390" transform="translate(12.409 8.978)">
        <path id="Path_99644" data-name="Path 99644" d="M732.223,167.314a64.251,64.251,0,0,1-4.993-5.788,3.32,3.32,0,0,1-.5-2.057,2.9,2.9,0,0,1,2.768-2.426,2.8,2.8,0,0,1,2.7,2.275,2.978,2.978,0,0,1,2.544-2.348,2.7,2.7,0,0,1,2.83,2.258,4.648,4.648,0,0,1-.566,2.4,23.852,23.852,0,0,1-4.774,5.693Z" transform="translate(-726.415 -156.684)" fill="#d1cef3"/>
        <path id="Path_99645" data-name="Path 99645" d="M731.993,167.376a.3.3,0,0,1-.2-.078,66.277,66.277,0,0,1-5.043-5.85,3.615,3.615,0,0,1-.543-2.236,3.166,3.166,0,0,1,3.048-2.678,3,3,0,0,1,2.7,1.72,3.117,3.117,0,0,1,2.544-1.793,3,3,0,0,1,3.116,2.51,4.855,4.855,0,0,1-.594,2.561A23.432,23.432,0,0,1,732.3,167.2l-.107.1a.3.3,0,0,1-.2.078ZM729.3,157.1h-.039a2.609,2.609,0,0,0-2.488,2.169,3.1,3.1,0,0,0,.465,1.877,69.162,69.162,0,0,0,4.752,5.536,22.655,22.655,0,0,0,4.511-5.424,4.387,4.387,0,0,0,.538-2.236,2.431,2.431,0,0,0-2.55-2h-.017a2.709,2.709,0,0,0-2.241,2.107.283.283,0,0,1-.28.235.28.28,0,0,1-.286-.224,2.519,2.519,0,0,0-2.37-2.045Z" transform="translate(-726.185 -156.46)"/>
      </g>
    </g>
    <g id="Group_106396" data-name="Group 106396" transform="translate(352.26 131.282)">
      <g id="Group_106392" data-name="Group 106392">
        <path id="Path_99646" data-name="Path 99646" d="M617.652,185.72h-42.2a10.039,10.039,0,0,0-10.042,10.042h0a10.048,10.048,0,0,0,7.7,9.767,9.978,9.978,0,0,1,.258,1.995,5.358,5.358,0,0,1-1.233,3.76c-.773.846-1.944,1.39-2.348,2.46-.482,1.261.3,2.723-.129,4-.286.852-1.053,1.451-1.435,2.264-.616,1.294-.146,2.819.336,4.175.8-4.231,4.606-4.858,5.094-6.887a6.383,6.383,0,0,1,2.634-3.166c1.037-.678,2.225-1.1,3.284-1.743a9.14,9.14,0,0,0,4.186-6.584h33.907A10.039,10.039,0,0,0,627.7,195.762h0a10.039,10.039,0,0,0-10.042-10.042Z" transform="translate(-565.124 -185.429)" fill="#fff"/>
        <path id="Path_99647" data-name="Path 99647" d="M568.329,224.24a.285.285,0,0,1-.269-.191c-.521-1.474-.969-3.02-.319-4.393a5.742,5.742,0,0,1,.7-1.053,4.148,4.148,0,0,0,.723-1.177,4.208,4.208,0,0,0,.034-1.838,4.539,4.539,0,0,1,.1-2.174,4.413,4.413,0,0,1,1.53-1.771,8.447,8.447,0,0,0,.88-.785,5.034,5.034,0,0,0,1.16-3.558,9.7,9.7,0,0,0-.219-1.765,10.332,10.332,0,0,1,2.589-20.335h42.2a10.333,10.333,0,1,1,0,20.666H583.778a9.368,9.368,0,0,1-4.287,6.539,17.121,17.121,0,0,1-1.552.813,14.909,14.909,0,0,0-1.72.925,6.1,6.1,0,0,0-2.51,2.992,4.573,4.573,0,0,1-1.894,2.253,7.385,7.385,0,0,0-3.2,4.617.287.287,0,0,1-.263.235Zm6.9-38.463a9.757,9.757,0,0,0-2.281,19.243.291.291,0,0,1,.213.219,11.217,11.217,0,0,1,.269,2.051,5.568,5.568,0,0,1-1.311,3.962,8.345,8.345,0,0,1-.941.841,2.9,2.9,0,0,0-1.418,3.429,3.6,3.6,0,0,1-.874,3.435,5.168,5.168,0,0,0-.633.947,4.24,4.24,0,0,0,.039,3.026,8.445,8.445,0,0,1,3.155-3.99c.818-.656,1.519-1.216,1.692-1.939a6.565,6.565,0,0,1,2.751-3.34,15.768,15.768,0,0,1,1.788-.964,16.606,16.606,0,0,0,1.5-.784,8.939,8.939,0,0,0,4.051-6.371.285.285,0,0,1,.286-.252h33.907a9.756,9.756,0,0,0,0-19.512h-42.2Z" transform="translate(-564.9 -185.2)"/>
      </g>
      <g id="Group_106393" data-name="Group 106393" transform="translate(12.065 5.682)">
        <path id="Path_99648" data-name="Path 99648" d="M591.63,204.57a55.46,55.46,0,0,1-4.236-4.886,2.788,2.788,0,0,1-.426-1.737,2.449,2.449,0,0,1,2.348-2.045,2.379,2.379,0,0,1,2.286,1.916,2.52,2.52,0,0,1,2.157-1.978,2.3,2.3,0,0,1,2.4,1.905,3.907,3.907,0,0,1-.482,2.023,20.142,20.142,0,0,1-4.046,4.8Z" transform="translate(-586.66 -195.56)" fill="#d1cef3"/>
        <path id="Path_99649" data-name="Path 99649" d="M591.4,204.642a.3.3,0,0,1-.2-.078,54.64,54.64,0,0,1-4.287-4.948,3.113,3.113,0,0,1-.465-1.916,2.718,2.718,0,0,1,2.628-2.3,2.434,2.434,0,0,0,4.432-.062h.022a2.579,2.579,0,0,1,2.684,2.157,4.094,4.094,0,0,1-.51,2.185,19.78,19.78,0,0,1-4.018,4.791l-.09.084a.3.3,0,0,1-.2.078Zm-2.281-8.663h-.034a2.166,2.166,0,0,0-2.068,1.788,2.527,2.527,0,0,0,.392,1.558,58.911,58.911,0,0,0,3.99,4.634,18.872,18.872,0,0,0,3.788-4.533,3.623,3.623,0,0,0,.454-1.86,2.014,2.014,0,0,0-2.118-1.647,2.222,2.222,0,0,0-1.872,1.743.286.286,0,0,1-.56.011,2.1,2.1,0,0,0-1.967-1.692Z" transform="translate(-586.43 -195.34)"/>
      </g>
      <g id="Group_106394" data-name="Group 106394" transform="translate(26.528 5.682)">
        <path id="Path_99650" data-name="Path 99650" d="M617.44,204.57a55.478,55.478,0,0,1-4.236-4.886,2.788,2.788,0,0,1-.426-1.737,2.449,2.449,0,0,1,2.348-2.045,2.374,2.374,0,0,1,2.286,1.916,2.52,2.52,0,0,1,2.157-1.978,2.3,2.3,0,0,1,2.4,1.905,3.908,3.908,0,0,1-.482,2.023,20.142,20.142,0,0,1-4.046,4.8Z" transform="translate(-612.47 -195.56)" fill="#d1cef3"/>
        <path id="Path_99651" data-name="Path 99651" d="M617.211,204.642a.3.3,0,0,1-.2-.078,56.536,56.536,0,0,1-4.287-4.948,3.114,3.114,0,0,1-.465-1.916,2.718,2.718,0,0,1,2.628-2.3,2.434,2.434,0,0,0,4.432-.062h.022a2.579,2.579,0,0,1,2.684,2.157,4.094,4.094,0,0,1-.51,2.185,19.78,19.78,0,0,1-4.018,4.791l-.09.084a.3.3,0,0,1-.2.078Zm-2.281-8.663H614.9a2.166,2.166,0,0,0-2.068,1.788,2.527,2.527,0,0,0,.392,1.558,58.885,58.885,0,0,0,3.99,4.634A18.87,18.87,0,0,0,621,199.425a3.624,3.624,0,0,0,.454-1.86,2.014,2.014,0,0,0-2.118-1.647h-.011a2.229,2.229,0,0,0-1.855,1.743.282.282,0,0,1-.275.235.288.288,0,0,1-.286-.224,2.1,2.1,0,0,0-1.967-1.692Z" transform="translate(-612.24 -195.34)"/>
      </g>
      <g id="Group_106395" data-name="Group 106395" transform="translate(40.99 5.682)">
        <path id="Path_99652" data-name="Path 99652" d="M643.25,204.57a55.46,55.46,0,0,1-4.236-4.886,2.788,2.788,0,0,1-.426-1.737,2.449,2.449,0,0,1,2.348-2.045,2.374,2.374,0,0,1,2.286,1.916,2.52,2.52,0,0,1,2.157-1.978,2.3,2.3,0,0,1,2.4,1.905,3.907,3.907,0,0,1-.482,2.023,20.143,20.143,0,0,1-4.046,4.8Z" transform="translate(-638.28 -195.56)" fill="#d1cef3"/>
        <path id="Path_99653" data-name="Path 99653" d="M643.021,204.642a.3.3,0,0,1-.2-.078,54.64,54.64,0,0,1-4.287-4.948,3.113,3.113,0,0,1-.465-1.916,2.718,2.718,0,0,1,2.628-2.3,2.434,2.434,0,0,0,4.432-.062h.022a2.579,2.579,0,0,1,2.684,2.157,4.094,4.094,0,0,1-.51,2.185,19.779,19.779,0,0,1-4.018,4.791l-.09.084a.3.3,0,0,1-.2.078Zm-2.281-8.663h-.034a2.166,2.166,0,0,0-2.068,1.788,2.527,2.527,0,0,0,.392,1.558,58.911,58.911,0,0,0,3.99,4.634,18.872,18.872,0,0,0,3.788-4.533,3.624,3.624,0,0,0,.454-1.86,2.014,2.014,0,0,0-2.118-1.647,2.235,2.235,0,0,0-1.872,1.743.289.289,0,0,1-.566.011A2.1,2.1,0,0,0,640.74,195.979Z" transform="translate(-638.05 -195.34)"/>
      </g>
    </g>
    <g id="Group_106399" data-name="Group 106399" transform="translate(223.049 196.632)">
      <g id="Group_106397" data-name="Group 106397">
        <path id="Path_99654" data-name="Path 99654" d="M346.885,302.609a9.85,9.85,0,0,0-9.431,2.914,10.559,10.559,0,0,0-2.387,9.285,9.468,9.468,0,0,0,7.4,6.831c4.668.544,8.495-1.58,9.689-2.947a10.28,10.28,0,0,0,2.376-9.162C353.721,306.358,351.015,303.668,346.885,302.609Z" transform="translate(-334.536 -302.05)" fill="#fff"/>
        <path id="Path_99655" data-name="Path 99655" d="M343.73,321.781a12.59,12.59,0,0,1-1.513-.09,9.739,9.739,0,0,1-7.654-7.055,10.886,10.886,0,0,1,2.454-9.537,10.113,10.113,0,0,1,9.717-3h0c4.04,1.031,6.976,3.7,7.856,7.128a10.59,10.59,0,0,1-2.438,9.42c-1.227,1.406-4.511,3.132-8.422,3.132Zm.751-19.383a9.677,9.677,0,0,0-7.038,3.093,10.285,10.285,0,0,0-2.314,9.027,9.1,9.1,0,0,0,7.156,6.6c4.769.555,8.417-1.681,9.436-2.847a10.025,10.025,0,0,0,2.314-8.9c-.824-3.222-3.609-5.732-7.442-6.713a8.625,8.625,0,0,0-2.113-.263Z" transform="translate(-334.312 -301.822)"/>
      </g>
      <g id="Group_106398" data-name="Group 106398" transform="translate(5.26 5.107)">
        <path id="Path_99656" data-name="Path 99656" d="M345.841,313.007l-1.631,1.619,4.813,5.99L353.674,313l-1.72-1.541-3.25,5.15Z" transform="translate(-343.923 -311.166)" fill="#d1cef3"/>
        <path id="Path_99657" data-name="Path 99657" d="M348.8,320.677a.287.287,0,0,1-.224-.106l-4.813-5.99a.291.291,0,0,1,.022-.387l1.631-1.619a.291.291,0,0,1,.219-.084.271.271,0,0,1,.207.106l2.611,3.284,3.032-4.808a.3.3,0,0,1,.2-.134.286.286,0,0,1,.23.073l1.726,1.541a.291.291,0,0,1,.056.364l-4.651,7.615a.314.314,0,0,1-.23.14H348.8Zm-4.427-6.259,4.393,5.469,4.315-7.06-1.289-1.154-3.065,4.858a.292.292,0,0,1-.23.134.3.3,0,0,1-.241-.106l-2.662-3.351-1.216,1.21Z" transform="translate(-343.698 -310.936)"/>
      </g>
    </g>
    <g id="Group_106400" data-name="Group 106400" transform="translate(182.635 140.371)">
      <circle id="Ellipse_129838" data-name="Ellipse 129838" cx="1.491" cy="1.491" r="1.491" transform="translate(0.286 0.286)" fill="#fff"/>
      <path id="Path_99658" data-name="Path 99658" d="M263.966,204.973a1.776,1.776,0,1,1,1.776-1.776A1.777,1.777,0,0,1,263.966,204.973Zm0-2.975a1.2,1.2,0,1,0,1.2,1.2A1.2,1.2,0,0,0,263.966,202Z" transform="translate(-262.19 -201.42)"/>
    </g>
    <g id="Group_106401" data-name="Group 106401" transform="translate(265.898 119.016)">
      <path id="Path_99659" data-name="Path 99659" d="M414.271,165.321a1.491,1.491,0,1,1-1.491-1.491A1.49,1.49,0,0,1,414.271,165.321Z" transform="translate(-411.004 -163.539)" fill="#fff"/>
      <path id="Path_99660" data-name="Path 99660" d="M412.556,166.863a1.776,1.776,0,1,1,1.776-1.776A1.777,1.777,0,0,1,412.556,166.863Zm0-2.975a1.2,1.2,0,1,0,1.2,1.2A1.2,1.2,0,0,0,412.556,163.887Z" transform="translate(-410.78 -163.31)"/>
    </g>
    <g id="Group_106402" data-name="Group 106402" transform="translate(121.332 116.511)">
      <circle id="Ellipse_129839" data-name="Ellipse 129839" cx="1.491" cy="1.491" r="1.491" transform="translate(0.286 0.291)" fill="#fff"/>
      <path id="Path_99661" data-name="Path 99661" d="M154.566,162.393a1.776,1.776,0,1,1,1.776-1.776A1.777,1.777,0,0,1,154.566,162.393Zm0-2.975a1.2,1.2,0,1,0,1.2,1.2A1.2,1.2,0,0,0,154.566,159.417Z" transform="translate(-152.79 -158.84)"/>
    </g>
    <g id="Group_106403" data-name="Group 106403" transform="translate(94.44 176.929)">
      <circle id="Ellipse_129840" data-name="Ellipse 129840" cx="1.491" cy="1.491" r="1.491" transform="translate(0.286 0.286)" fill="#fff"/>
      <path id="Path_99662" data-name="Path 99662" d="M106.576,270.213a1.776,1.776,0,1,1,1.776-1.776A1.777,1.777,0,0,1,106.576,270.213Zm0-2.975a1.2,1.2,0,1,0,1.2,1.2A1.2,1.2,0,0,0,106.576,267.237Z" transform="translate(-104.8 -266.66)"/>
    </g>
    <g id="Group_106404" data-name="Group 106404" transform="translate(280.647 62.56)">
      <circle id="Ellipse_129841" data-name="Ellipse 129841" cx="1.491" cy="1.491" r="1.491" transform="translate(0.286 0.286)" fill="#fff"/>
      <path id="Path_99663" data-name="Path 99663" d="M438.876,66.113a1.776,1.776,0,1,1,1.776-1.776A1.777,1.777,0,0,1,438.876,66.113Zm0-2.975a1.2,1.2,0,1,0,1.2,1.2A1.2,1.2,0,0,0,438.876,63.137Z" transform="translate(-437.1 -62.56)"/>
    </g>
    <g id="Group_106405" data-name="Group 106405" transform="translate(434.341 96.366)">
      <circle id="Ellipse_129842" data-name="Ellipse 129842" cx="1.491" cy="1.491" r="1.491" transform="translate(0.286 0.286)" fill="#fff"/>
      <path id="Path_99664" data-name="Path 99664" d="M713.156,126.443a1.776,1.776,0,1,1,1.776-1.776A1.777,1.777,0,0,1,713.156,126.443Zm0-2.975a1.2,1.2,0,1,0,1.2,1.2A1.2,1.2,0,0,0,713.156,123.467Z" transform="translate(-711.38 -122.89)"/>
    </g>
    <g id="Group_106406" data-name="Group 106406" transform="translate(324.31 100.474)">
      <circle id="Ellipse_129843" data-name="Ellipse 129843" cx="1.491" cy="1.491" r="1.491" transform="translate(0.286 0.286)" fill="#fff"/>
      <path id="Path_99665" data-name="Path 99665" d="M516.8,133.773A1.776,1.776,0,1,1,518.573,132,1.777,1.777,0,0,1,516.8,133.773Zm0-2.975A1.2,1.2,0,1,0,518,132,1.2,1.2,0,0,0,516.8,130.8Z" transform="translate(-515.02 -130.22)"/>
    </g>
    <g id="Group_106407" data-name="Group 106407" transform="translate(450.833 156.935)">
      <path id="Path_99666" data-name="Path 99666" d="M744.3,232.981a1.491,1.491,0,1,1-1.491-1.491A1.49,1.49,0,0,1,744.3,232.981Z" transform="translate(-741.034 -231.204)" fill="#fff"/>
      <path id="Path_99667" data-name="Path 99667" d="M742.586,234.533a1.776,1.776,0,1,1,1.776-1.776A1.777,1.777,0,0,1,742.586,234.533Zm0-2.975a1.2,1.2,0,1,0,1.2,1.2A1.2,1.2,0,0,0,742.586,231.557Z" transform="translate(-740.81 -230.98)"/>
    </g>
    <g id="Group_106408" data-name="Group 106408" transform="translate(373.744 205.372)">
      <circle id="Ellipse_129844" data-name="Ellipse 129844" cx="1.491" cy="1.491" r="1.491" transform="translate(0.286 0.286)" fill="#fff"/>
      <path id="Path_99668" data-name="Path 99668" d="M605.016,320.973a1.776,1.776,0,1,1,1.776-1.776A1.777,1.777,0,0,1,605.016,320.973Zm0-2.975a1.2,1.2,0,1,0,1.2,1.2A1.2,1.2,0,0,0,605.016,318Z" transform="translate(-603.24 -317.42)"/>
    </g>
    <g id="Group_106409" data-name="Group 106409" transform="translate(165.023 206.51)">
      <circle id="Ellipse_129845" data-name="Ellipse 129845" cx="1.491" cy="1.491" r="1.491" transform="translate(0.286 0.286)" fill="#fff"/>
      <path id="Path_99669" data-name="Path 99669" d="M232.536,323a1.776,1.776,0,1,1,1.776-1.776A1.777,1.777,0,0,1,232.536,323Zm0-2.975a1.2,1.2,0,1,0,1.2,1.2A1.2,1.2,0,0,0,232.536,320.027Z" transform="translate(-230.76 -319.45)"/>
    </g>
  </g>
</svg>
