<svg xmlns="http://www.w3.org/2000/svg" width="249.027" height="155.843" viewBox="0 0 249.027 155.843">
  <g id="Group_105917" data-name="Group 105917" transform="translate(-49.25 -266.837)">
    <g id="Group_105910" data-name="Group 105910" transform="translate(49.25 266.837)">
      <path id="Path_98954" data-name="Path 98954" d="M278.423,422.677a19.689,19.689,0,0,1-4.993-.654,19.162,19.162,0,0,1-14.077-20.873,85.059,85.059,0,0,0,.549-9.136v-.667a86.414,86.414,0,0,0-2.758-21.67,85.442,85.442,0,0,0-8.522-20.873A86.4,86.4,0,0,0,217.1,316.939a86.043,86.043,0,0,0-104.549,13.867,86.628,86.628,0,0,0-13.645,18,85.442,85.442,0,0,0-8.522,20.873,86.338,86.338,0,0,0-2.758,21.67v.667a85.275,85.275,0,0,0,.562,9.136,19.194,19.194,0,1,1-38.1,4.692,124.347,124.347,0,0,1-.836-13.789v-.719A124.536,124.536,0,0,1,294.225,359.77h0a124.523,124.523,0,0,1,4.052,31.565v.719a127.164,127.164,0,0,1-.85,13.776,18.989,18.989,0,0,1-8.221,13.515,19.21,19.21,0,0,1-10.822,3.333ZM173.783,298.85a92.322,92.322,0,0,1,46.543,12.613,92.7,92.7,0,0,1,33.839,34.192,91.682,91.682,0,0,1,12.116,45.68v.719a98.184,98.184,0,0,1-.6,9.816A12.864,12.864,0,0,0,285.69,414.1a12.634,12.634,0,0,0,5.476-9.005,117.962,117.962,0,0,0,.8-13.083v-.68a117.921,117.921,0,0,0-3.843-29.957h0a117.812,117.812,0,0,0-11.711-28.611,118.978,118.978,0,0,0-43.249-43.589,117.381,117.381,0,0,0-28.611-11.959,118.835,118.835,0,0,0-61.508,0,117.6,117.6,0,0,0-28.611,11.959,118.978,118.978,0,0,0-43.249,43.589,117.639,117.639,0,0,0-15.567,58.568v.68a121.217,121.217,0,0,0,.81,13.083A12.676,12.676,0,0,0,61.9,414.1a12.864,12.864,0,0,0,20.011-12.234,94.659,94.659,0,0,1-.6-9.816v-.235c0-.157-.013-.327-.013-.484a91.682,91.682,0,0,1,12.116-45.68,92.7,92.7,0,0,1,33.839-34.192A92.322,92.322,0,0,1,173.8,298.85Z" transform="translate(-49.25 -266.837)" fill="#eaeaea"/>
      <path id="Path_98955" data-name="Path 98955" d="M68.938,421.559a18.34,18.34,0,0,1-10.312-3.176A18.125,18.125,0,0,1,50.8,405.522a125.672,125.672,0,0,1-.836-13.685v-.706A123.626,123.626,0,0,1,293.144,359.8h0a123.341,123.341,0,0,1,4.026,31.329v.719a129.046,129.046,0,0,1-.836,13.685A18.033,18.033,0,0,1,288.5,418.4a18.3,18.3,0,0,1-28.467-17.344,87.012,87.012,0,0,0,.562-9.241v-.68a87.054,87.054,0,0,0-109.751-84.042,86.065,86.065,0,0,0-21.1,8.849,86.919,86.919,0,0,0-43.262,75.193v.68a86.98,86.98,0,0,0,.562,9.228,18.3,18.3,0,0,1-18.168,20.52Zm104.64-122.01a91.544,91.544,0,0,1,91.583,91.57v.719a92.444,92.444,0,0,1-.6,9.711,13.768,13.768,0,0,0,21.422,13.083,13.54,13.54,0,0,0,5.869-9.646,119.647,119.647,0,0,0,.8-13.188v-.68a119.076,119.076,0,1,0-238.152,0v.68a123.153,123.153,0,0,0,.81,13.188,13.582,13.582,0,0,0,5.869,9.646A13.768,13.768,0,0,0,82.6,401.549a92.861,92.861,0,0,1-.588-9.711v-.261c0-.144-.013-.3-.013-.457a91.618,91.618,0,0,1,91.583-91.57Z" transform="translate(-49.032 -266.622)" fill="#fcfcfc"/>
    </g>
    <g id="Group_105911" data-name="Group 105911" transform="translate(52.439 269.991)">
      <path id="Path_98956" data-name="Path 98956" d="M205.125,322.018a122.41,122.41,0,0,1,19.252-25.278l22.638,22.638a90.051,90.051,0,0,0-14.142,18.651,88.227,88.227,0,0,0-8.835,21.644L193.1,351.387A120.7,120.7,0,0,1,205.125,322Z" transform="translate(-189.153 -260.81)" fill="#f27024"/>
      <path id="Path_98957" data-name="Path 98957" d="M187.474,284.726a120.434,120.434,0,0,1,29.382-12.286l8.3,30.95a88.447,88.447,0,0,0-21.644,9.084,90.105,90.105,0,0,0-18.534,14.364L162.34,304.2a122.734,122.734,0,0,1,25.147-19.475Z" transform="translate(-127.09 -268.271)" fill="#f2b824"/>
      <path id="Path_98958" data-name="Path 98958" d="M214.627,338.56l30.937,8.286a89.1,89.1,0,0,0-2.862,22.468c0,.235.013.457.013.693a90.62,90.62,0,0,0,.575,9.476,16.073,16.073,0,0,1-11.75,17.449h0a15.984,15.984,0,0,1-20.05-13.488,119.821,119.821,0,0,1-.81-13.436v-.693a120.513,120.513,0,0,1,3.96-30.754Z" transform="translate(-210.68 -247.97)" fill="#de1010"/>
      <path id="Path_98959" data-name="Path 98959" d="M54.539,370.007c0-.235.013-.457.013-.693a89.024,89.024,0,0,0-2.862-22.468l30.937-8.286a121.25,121.25,0,0,1,3.96,30.754v.693a123.4,123.4,0,0,1-.81,13.436,15.992,15.992,0,0,1-20.05,13.488h0a16.086,16.086,0,0,1-11.75-17.449,90.629,90.629,0,0,0,.575-9.476Z" transform="translate(156.1 -247.97)" fill="#007c32"/>
      <path id="Path_98960" data-name="Path 98960" d="M77.358,296.74A121.954,121.954,0,0,1,96.61,322.018,120.7,120.7,0,0,1,108.635,351.4L77.7,359.686a89.26,89.26,0,0,0-8.835-21.644A89.7,89.7,0,0,0,54.72,319.391l22.638-22.638Z" transform="translate(130.093 -260.81)" fill="#4c9e29"/>
      <path id="Path_98961" data-name="Path 98961" d="M151.974,269.25a120.941,120.941,0,0,1,31.578,4.182l-8.3,30.95a89.111,89.111,0,0,0-46.582,0l-8.3-30.95a121.092,121.092,0,0,1,31.578-4.182Z" transform="translate(-30.63 -269.25)" fill="#f2eb24"/>
      <path id="Path_98962" data-name="Path 98962" d="M86.95,272.45a120.649,120.649,0,0,1,29.382,12.286,122.384,122.384,0,0,1,25.147,19.475l-22.638,22.638A89.761,89.761,0,0,0,78.65,303.4Z" transform="translate(65.972 -268.267)" fill="#aec934"/>
    </g>
    
  </g>
</svg>
